<svg width="280" height="280" viewBox="0 0 280 280" fill="none" xmlns="http://www.w3.org/2000/svg">
<g clip-path="url(#clip0_72_2345)">
<path d="M118.95 150.63C98.682 143.454 78.9 132.517 69.9344 112.919C61.085 93.572 65.4936 68.9446 80.5072 53.8708C85.7292 48.6278 92.3106 44.4138 99.6438 43.4254C110.002 42.0296 120.131 47.1746 128.555 53.3626C136.979 59.5506 144.63 67.0042 154.107 71.4114C164.861 76.4136 177.078 77.08 188.444 80.4708C195.379 82.5386 202.24 85.8118 206.801 91.4286C211.332 97.009 213.143 104.402 213.229 111.59C213.474 132.204 199.304 152.079 179.879 158.987C167.152 163.513 153.818 160.643 141.197 157.318C134.067 155.441 126.475 153.295 118.95 150.63Z" fill="#EDF2FF"/>
<path d="M161.057 150.398C142.281 162.456 120.836 171.819 99.5001 167.111C78.4371 162.463 61.7421 143.828 59.4699 122.43C58.6803 114.988 59.5848 107.071 63.5328 100.517C69.1104 91.2592 79.7307 86.187 90.0767 83.135C100.423 80.083 111.276 78.4324 120.889 73.4372C131.8 67.7686 140.214 58.264 150.239 51.1142C156.354 46.7518 163.381 43.186 170.781 42.92C178.134 42.6554 185.169 45.706 190.927 50.032C207.442 62.4374 214.068 86.0862 207.013 106.07C202.39 119.164 191.507 128.228 180.724 136.436C174.63 141.073 168.027 145.921 161.057 150.398Z" stroke="#EDF2FF" stroke-width="4.3663" stroke-miterlimit="10"/>
<path d="M96.6335 116.636C96.6335 116.636 94.5475 111.324 103.155 104.152L103.024 116.02L96.6335 116.636Z" fill="#102048"/>
<path d="M96.3468 91.9437C93.2822 85.6927 90.7818 81.2015 89.2054 81.9099C88.7882 82.0975 88.5894 82.6351 88.7112 83.1111C89.5428 86.3689 92.9112 92.4407 92.9112 92.4407L96.3468 91.9437Z" fill="#F9B384"/>
<path d="M100.26 100.883L94.8771 104.363C92.5139 103.296 90.4531 101.144 89.0293 97.1558C88.8305 96.5972 88.8781 95.963 89.1749 95.4604L90.3019 93.5312C90.7037 92.8522 90.8969 92.0528 90.8549 91.2436L90.7471 88.914C90.7387 88.7446 90.8003 88.5794 90.9123 88.4632L91.7439 87.6064C91.8937 87.4524 92.1219 87.4384 92.2857 87.5728L94.0259 88.9952L93.6871 88.9728C93.6871 88.9728 93.9741 91.9856 96.2113 92.134L97.3747 93.6236L100.26 100.883Z" fill="#F9B384"/>
<path d="M100.99 100.415L100.26 100.883L97.3741 93.6254L96.2107 92.1358C93.9735 91.9874 93.6865 88.9746 93.6865 88.9746L94.0253 88.997L96.6601 89.151C97.3909 89.1916 98.0797 89.5164 98.6117 90.0638L100.401 91.9188C100.745 92.2786 101.002 92.7238 101.141 93.2138C101.846 95.6274 101.71 98.0242 100.99 100.415Z" fill="#F9B384"/>
<path d="M104.198 101.539L102.983 113.068C102.983 113.068 99.5043 115.822 99.3321 116.109C99.2537 116.234 98.0595 113.407 96.7449 110.189C95.0495 106.052 93.1553 101.273 93.1553 101.273L100.719 96.9963L103.375 100.46L104.198 101.539Z" fill="#F9B384"/>
<path d="M104.198 101.54L102.982 113.069C102.982 113.069 99.5035 115.822 99.3313 116.109C99.2529 116.234 98.0587 113.407 96.7441 110.189L103.374 100.46L104.198 101.54Z" fill="#E28B6D"/>
<path d="M97.4795 94.0199C97.3087 93.8211 96.5443 92.7991 96.3021 92.4743C93.6407 92.2727 93.4279 89.0233 93.4265 88.9897L93.4111 88.7209L93.6799 88.7153C97.9933 88.6173 98.9061 89.7695 99.4507 90.4597C99.5445 90.5787 99.6271 90.6823 99.7083 90.7551L99.3611 91.1443C99.2463 91.0407 99.1469 90.9161 99.0419 90.7831C98.5379 90.1461 97.7777 89.1899 93.9753 89.2319C94.0803 89.9599 94.5381 91.8877 96.4463 91.9605L96.5709 91.9647L96.6451 92.0641C97.0035 92.5471 97.7231 93.5047 97.8729 93.6797L97.4795 94.0199Z" fill="#E28B6D"/>
<path d="M95.7928 94.8713C95.5226 94.8713 95.2832 94.7607 95.132 94.6375C94.7736 94.3449 92.332 92.4241 92.332 92.4241L92.654 92.0139C92.654 92.0139 95.1026 93.9403 95.461 94.2343C95.5464 94.3043 95.7466 94.3995 95.9594 94.3183C96.2702 94.1979 96.4984 93.7401 96.602 93.0303L97.1186 93.1059C96.9492 94.2651 96.4984 94.6697 96.1484 94.8055C96.0294 94.8517 95.909 94.8713 95.7928 94.8713Z" fill="#E28B6D"/>
<path d="M93.464 89.1087C93.233 88.8791 91.35 88.6117 90.9846 88.7153L90.8418 88.2141C91.2996 88.084 93.5998 88.3262 93.9106 88.8385L93.464 89.1087Z" fill="#E28B6D"/>
<path d="M95.6749 97.712C94.9133 97.712 93.9738 97.0946 93.8408 97.0036L91.6484 95.5644L91.934 95.129L94.1307 96.571C94.6907 96.9504 95.6553 97.3816 95.9577 97.11C96.0641 97.0134 96.1173 96.8566 96.1131 96.641C96.1005 95.9942 95.5839 95.0534 95.1653 94.7048L95.4985 94.303C96.0221 94.737 96.6199 95.8248 96.6353 96.6298C96.6423 96.998 96.5289 97.2976 96.3077 97.4964C96.1327 97.6504 95.9129 97.712 95.6749 97.712Z" fill="#E28B6D"/>
<path d="M94.0699 99.4813C93.4189 99.4813 92.6377 98.9787 92.4459 98.8499L90.5195 97.5843L90.8051 97.1488L92.7357 98.4158C93.2201 98.7434 94.0503 99.1201 94.3037 98.8919C94.3905 98.8135 94.4325 98.6832 94.4297 98.504C94.4185 97.916 93.9313 97.0942 93.6079 96.8268L93.9411 96.425C94.4059 96.8114 94.9379 97.7775 94.9519 98.4943C94.9589 98.8275 94.8553 99.0991 94.6537 99.2811C94.4899 99.4253 94.2869 99.4813 94.0699 99.4813Z" fill="#E28B6D"/>
<path d="M120.855 245.432L120.288 247.998C115.872 248.306 110.37 251.344 107.674 255.148H128.773L129.501 244.228C126.712 244.907 123.357 245.518 120.855 245.432Z" fill="#EE6F57"/>
<path d="M129.503 244.23L129.921 237.965L122.805 236.604L120.856 245.433C123.357 245.518 126.713 244.908 129.503 244.23Z" fill="#F9B384"/>
<path d="M163.665 243.72L161.059 234.66L153.931 235.61L155.66 244.227C158.415 244.324 161.103 244.153 163.665 243.72Z" fill="#F9B384"/>
<path d="M176.391 250.78C172.882 246.071 168.628 245.934 164.212 245.628L163.663 243.721C161.103 244.155 158.415 244.324 155.658 244.228L157.841 255.107L176.391 250.78Z" fill="#EE6F57"/>
<path d="M141.271 131.038L140.358 156.431C140.337 157.114 140.316 157.803 140.291 158.48C139.822 172.424 138.913 185.815 137.656 198.757C136.232 213.415 134.365 227.5 132.168 241.167H117.761C115.841 210.698 112.607 174.12 118.543 141.027L122.158 132.18L141.271 131.038Z" fill="#1F3C88"/>
<path d="M161.093 142.453C164.709 172.696 167.839 206.552 166.448 238.126L150.798 241.17C146.523 214.84 139.057 180.97 138.105 150.441L136.019 125.619L159.484 132.181L161.093 142.453Z" fill="#1F3C88"/>
<path d="M143.06 68.8313H132.606V81.7897H143.06V68.8313Z" fill="#F9B384"/>
<path d="M132.54 76.8113C136.365 82.1145 141.233 79.7919 143.059 76.2275L155.493 131.469C143.89 136.465 132.735 137.206 122.281 131.278L128.889 78.9715L132.54 76.8113Z" fill="white"/>
<path d="M148.83 60.8204C151.145 56.2494 151.663 49.1836 146.277 48.8882C141.604 44.278 134.049 44.9108 129.655 49.7198C121.166 47.1074 119.911 62.667 130.717 62.0734L148.83 60.8204Z" fill="#102048"/>
<path d="M132.606 68.8313V75.7235C135.693 75.7907 138.289 74.6441 139.868 72.6659C139.868 72.6659 136.82 70.5365 134.417 68.8313H132.606Z" fill="#102048"/>
<path d="M147.406 56.2592L146.578 64.2616C145.311 67.8092 143.745 70.3082 141.778 71.893C139.75 73.5254 137.12 74.042 134.7 73.3126C132.624 72.6812 130.928 71.1426 130.234 69.0608C129.853 67.9128 129.775 66.6038 130.109 65.1898C130.161 64.9658 130.203 64.7418 130.224 64.5122C130.333 63.5938 130.234 62.66 130.004 61.7626C129.518 59.8852 129.493 57.928 129.832 55.905L139.211 52.937L147.406 56.2592Z" fill="#F9B384"/>
<path d="M129.063 152.531C124.209 153.595 118.518 153.497 112.197 152.531C113.75 138.398 115.878 124.834 119.154 112.4L105.504 111.068C105.633 108.867 105.92 106.599 106.372 104.276C106.879 101.66 107.601 98.9701 108.529 96.2262C108.56 96.1282 108.596 96.0301 108.633 95.9321C111.927 86.3968 117.912 79.2134 132.626 76.762C137.235 98.7321 136.888 131.228 129.063 152.531Z" fill="#708CD5"/>
<path d="M164.229 134.236C165.058 139.187 165.789 144.143 166.535 149.302C161.82 150.982 156.118 151.592 149.581 151.299C146.848 142.505 144.996 133.345 143.926 123.867C143.926 123.83 143.921 123.799 143.917 123.762C142.231 108.691 141.142 92.7907 143.061 76.2441C149.081 76.6725 155.252 78.5191 161.032 82.2221C163.014 83.4947 164.621 85.3679 165.695 87.5841C169.738 95.9043 171.621 103.224 173.186 110.782L160.536 115.92C160.907 117.464 161.256 118.993 161.59 120.5C162.616 125.17 163.468 129.698 164.229 134.236Z" fill="#708CD5"/>
<path d="M122.064 107.076L120.371 120.861L119.583 121.906L115.708 127.035C114.13 129.119 111.967 130.158 109.79 130.176C107.442 130.194 105.096 129.027 103.494 126.679L96.6357 116.635C100.01 112.125 103.262 107.54 104.197 101.536C108.623 106.695 109.937 108.64 109.937 108.64L122.064 107.076Z" fill="#708CD5"/>
<path d="M129.595 59.2173C133.07 59.0437 136.552 58.3031 140.044 56.4859C141.148 58.5943 143.756 61.3761 147.583 60.3331L147.998 58.0301L148.295 54.1115L136.779 50.4309L127.756 53.3989L129.595 59.2173Z" fill="#102048"/>
<path opacity="0.4" d="M164.23 134.236C156.875 133.522 149.9 130.132 143.928 123.867C143.901 123.836 143.87 123.809 143.844 123.778L143.917 123.763L161.59 120.502C162.618 125.17 163.469 129.698 164.23 134.236Z" fill="#1F3C88"/>
<path d="M138.621 159.019C140.863 172.67 138.914 185.816 137.656 198.758C127.151 182.399 137.228 162.499 138.621 159.019Z" fill="#102048"/>
<path d="M104.407 101.375L103.996 101.697L111.56 111.355L111.971 111.033L104.407 101.375Z" fill="#1F3C88"/>
<path opacity="0.4" d="M158.276 95.6313L160.884 110.585C160.884 110.585 156.233 113.668 154.804 111.142C153.689 109.172 155.152 102.738 158.276 95.6313Z" fill="#1F3C88"/>
<path d="M131.493 106.254L128.329 106.476C127.984 106.499 127.692 106.757 127.595 107.118L127.574 107.198C127.422 107.765 127.531 108.378 127.867 108.843L128.438 109.633C128.529 109.759 128.509 109.934 128.392 110.036C127.891 110.282 127.527 110.771 127.506 111.329C127.5 111.469 127.511 111.605 127.538 111.73C127.653 112.269 128.029 112.693 128.518 112.834L128.827 112.924C128.868 112.935 128.885 112.987 128.862 113.025L128.417 113.768C128.087 114.348 128.57 115.434 129.043 115.825C129.139 115.986 129.447 116.045 129.621 116.068L131.015 116.259C131.664 116.347 132.281 116.578 132.846 116.908C135.66 118.558 139.103 118.387 142.544 118.223L142.275 109.183C139.929 107.381 137.235 105.851 134.118 104.657L126.692 99.3721C125.064 100.087 126.083 102.098 131.493 106.254Z" fill="#F9B384"/>
<path d="M173.185 110.783L174.281 115.402C175.705 121.4 171.21 127.103 165.578 126.445L138.8 123.194L140.842 107.93L173.185 110.783Z" fill="#708CD5"/>
<path d="M119.184 95.3745L115.445 126.998L115.964 127.059L119.702 95.4358L119.184 95.3745Z" fill="#1F3C88"/>
<path d="M140.854 107.676L140.811 108.195L160.894 109.894L160.938 109.375L140.854 107.676Z" fill="#1F3C88"/>
<path d="M132.775 110.454C132.621 110.438 129.008 110.058 128.362 109.879L128.502 109.376C129.002 109.516 131.795 109.827 132.828 109.936L132.775 110.454Z" fill="#E28B6D"/>
<path d="M133.253 113.889C133.095 113.873 129.377 113.495 128.731 113.315L128.871 112.812C129.371 112.952 132.241 113.261 133.305 113.369L133.253 113.889Z" fill="#E28B6D"/>
<path d="M145.03 66.2231C151.581 67.2031 152.45 56.7689 145.495 60.9423L145.03 66.2231Z" fill="#F9B384"/>
<path d="M146.545 63.374C146.465 63.038 146.446 62.6768 146.52 62.3198C146.593 61.9628 146.769 61.6142 147.042 61.3412C147.314 61.0738 147.699 60.8764 148.109 60.9072C148.515 60.9282 148.89 61.1774 149.044 61.5106L148.88 61.6324C148.642 61.428 148.371 61.3356 148.112 61.3622C147.851 61.3818 147.604 61.5218 147.405 61.7122C147.203 61.904 147.058 62.1602 146.944 62.4374C146.839 62.7216 146.796 63.031 146.748 63.3558L146.545 63.374Z" fill="#E28B6D"/>
<path d="M133.823 61.9751C133.823 62.6471 133.444 63.1917 132.976 63.1917C132.508 63.1917 132.129 62.6471 132.129 61.9751C132.129 61.3031 132.508 60.7585 132.976 60.7585C133.444 60.7585 133.823 61.3017 133.823 61.9751Z" fill="#102048"/>
<path d="M140.214 61.323C140.214 61.995 139.834 62.5396 139.367 62.5396C138.899 62.5396 138.52 61.995 138.52 61.323C138.52 60.651 138.899 60.1064 139.367 60.1064C139.834 60.1064 140.214 60.651 140.214 61.323Z" fill="#102048"/>
<path d="M136.497 60.9466C136.436 61.5654 136.216 62.1618 135.949 62.7078C135.701 63.2594 135.328 63.7844 135.085 64.266C134.834 64.7644 134.768 65.232 135.079 65.638C135.386 66.0524 135.891 66.3842 136.376 66.737L136.257 66.9512C135.704 66.7272 135.114 66.4976 134.649 65.981C134.418 65.7276 134.256 65.3496 134.259 64.98C134.263 64.609 134.381 64.2786 134.525 63.9888C134.833 63.4078 135.18 62.9696 135.477 62.453C135.779 61.9504 136.062 61.4464 136.257 60.8948L136.497 60.9466Z" fill="#102048"/>
<path d="M134.585 68.7499L139.181 67.4409C139.181 67.4409 139.163 69.5115 136.965 70.0169C135.708 70.3053 134.585 68.7499 134.585 68.7499Z" fill="white"/>
<path opacity="0.4" d="M132.304 66.7873C132.304 67.9773 131.397 68.9573 130.233 69.0623C129.853 67.9143 129.774 66.6053 130.109 65.1913C130.161 64.9673 130.203 64.7433 130.224 64.5137C131.391 64.6117 132.304 65.5917 132.304 66.7873Z" fill="#FC8879"/>
<path opacity="0.4" d="M144.44 65.5211C144.642 64.2763 143.797 63.1034 142.552 62.9013C141.307 62.6993 140.134 63.5447 139.932 64.7895C139.73 66.0343 140.576 67.2072 141.82 67.4093C143.065 67.6113 144.238 66.7659 144.44 65.5211Z" fill="#FC8879"/>
<path opacity="0.4" d="M116.309 123.259L115.706 127.035C114.128 129.119 111.965 130.158 109.788 130.176C111.934 121.422 117.022 115.108 117.022 115.108L116.309 123.259Z" fill="#1F3C88"/>
<path opacity="0.2" d="M111.696 111.111L106.372 104.276C106.879 101.66 107.601 98.9704 108.529 96.2264C108.56 96.1284 108.597 96.0304 108.633 95.9324C109.642 97.8154 111.996 103.109 111.696 111.111Z" fill="#1F3C88"/>
<path d="M109.06 64.8411C106.565 63.8415 104.444 62.3043 102.741 60.1665C104.724 57.1775 105.882 53.5935 105.882 49.7379C105.882 39.2435 97.0889 30.6391 86.5973 30.8561C75.9475 31.0759 67.4635 40.1129 68.1481 50.9629C68.7431 60.3947 76.4193 68.0345 85.8525 68.5903C90.4991 68.8647 94.8083 67.4549 98.2313 64.9181C101.201 66.1879 104.719 66.4721 109.028 65.3311C109.266 65.2681 109.288 64.9321 109.06 64.8411Z" fill="white" stroke="#708CD5" stroke-width="4.166" stroke-miterlimit="10"/>
<path d="M92.8746 49.5292C92.8746 45.9536 89.7764 43.1032 86.1196 43.512C83.3798 43.8186 81.151 46.018 80.8108 48.7536C80.5798 50.6156 81.1958 52.332 82.3242 53.5794C83.2146 54.5622 83.6752 55.86 83.6752 57.1872V57.1942C83.6752 58.9302 85.0822 60.3372 86.8182 60.3372C88.5542 60.3372 89.9612 58.9302 89.9612 57.1942V57.19C89.9612 55.8124 90.51 54.5132 91.4102 53.4702C92.3216 52.4118 92.8746 51.0356 92.8746 49.5292Z" fill="#FBC343"/>
<path d="M86.818 61.3634C87.9226 61.3634 88.834 60.5403 88.9768 59.4749H84.6592C84.802 60.5403 85.7134 61.3634 86.818 61.3634Z" fill="#102048"/>
<path opacity="0.8" d="M85.0392 48.6083C84.6472 49.7059 83.8968 50.4409 83.362 50.2505C82.8286 50.0601 82.7138 49.0157 83.1058 47.9181C83.4978 46.8205 84.2482 46.0855 84.783 46.2759C85.3164 46.4663 85.4312 47.5107 85.0392 48.6083Z" fill="white"/>
<path d="M87.0091 41.4483H86.8579C86.5625 41.4483 86.3203 41.2061 86.3203 40.9107V37.5129C86.3203 37.2175 86.5625 36.9753 86.8579 36.9753H87.0091C87.3045 36.9753 87.5467 37.2175 87.5467 37.5129V40.9107C87.5467 41.2075 87.3045 41.4483 87.0091 41.4483Z" fill="#FBC343"/>
<path d="M82.3368 42.4422L82.1898 42.5416C81.9504 42.7026 81.6228 42.6396 81.4618 42.4016L79.7972 39.9418C79.6362 39.7024 79.6992 39.3748 79.9372 39.2138L80.0842 39.1144C80.3236 38.9534 80.6512 39.0164 80.8122 39.2544L82.4768 41.7142C82.6392 41.9522 82.5762 42.2798 82.3368 42.4422Z" fill="#FBC343"/>
<path d="M91.3539 42.3514L91.5093 42.4564C91.7459 42.616 92.0707 42.5544 92.2317 42.3178L93.8431 39.9378C94.0027 39.7012 93.9411 39.3764 93.7045 39.2154L93.5491 39.1104C93.3125 38.9508 92.9877 39.0124 92.8267 39.249L91.2153 41.629C91.0543 41.867 91.1173 42.1918 91.3539 42.3514Z" fill="#FBC343"/>
<path d="M73.2666 254.857H205.803" stroke="#102048" stroke-width="6.2489" stroke-miterlimit="10"/>
<path d="M313.952 269.982L260.532 238.418C252.531 238.29 246.053 236.391 241.819 231.884C230.774 235.303 222.302 227.499 227.974 222.072C226.747 219.076 226.723 216.366 228.843 214.169C227.223 212.019 226.932 209.184 228.782 207.094C229.046 198.353 236.557 193.207 250.21 197.005C247.772 186.431 246.118 176.367 255.008 173.148C257.509 184.721 259.982 196.719 262.98 200.746C268.068 204.482 272.599 208.064 275.181 211.103L333.16 236.542L313.952 269.982Z" fill="#F9B384"/>
<path d="M243.741 212.926C241.899 212.926 240.064 212.541 238.379 211.781L228.649 207.391L228.916 206.799L238.646 211.189C241.13 212.309 243.962 212.575 246.619 211.94C249.174 211.329 250.15 210.178 250.451 209.712C250.881 209.046 250.869 207.459 250.21 206.332C249.849 205.717 249.146 204.994 247.854 205.083L243.62 205.447L238.335 200.887L238.759 200.395L243.837 204.776L247.805 204.436C249.079 204.355 250.129 204.911 250.77 206.003C251.581 207.386 251.542 209.219 250.997 210.064C250.653 210.597 249.554 211.906 246.771 212.572C245.775 212.808 244.756 212.926 243.741 212.926Z" fill="#E28B6D"/>
<path d="M242.737 219.829C237.786 219.829 229.076 214.685 228.677 214.448L229.009 213.89C229.112 213.951 239.41 220.037 243.752 219.081C248.237 218.096 250.53 215.249 250.815 214.38C251.035 213.707 250.202 212.197 249.625 211.404L250.15 211.022C250.323 211.26 251.829 213.376 251.432 214.583C251.003 215.889 248.35 218.736 243.891 219.716C243.539 219.793 243.15 219.829 242.737 219.829Z" fill="#E28B6D"/>
<path d="M240.773 225.943C234.496 225.943 228.114 222.518 227.819 222.358L228.129 221.786C228.206 221.829 235.981 226 242.591 225.186C249.353 224.354 251.137 223.426 251.735 222.288C252.011 221.763 251.992 220.523 251.238 219.562C250.668 218.836 249.519 218.088 247.281 218.644L247.125 218.014C249.838 217.338 251.185 218.443 251.749 219.161C252.624 220.276 252.722 221.81 252.311 222.592C251.579 223.981 249.768 224.958 242.672 225.831C242.043 225.908 241.409 225.943 240.773 225.943Z" fill="#E28B6D"/>
<path d="M241.935 232.187L241.703 231.58C244.527 230.503 247.945 227.923 247.955 226.335C247.956 226.162 247.958 225.632 246.949 225.234L247.186 224.631C248.363 225.095 248.607 225.816 248.603 226.34C248.591 228.39 244.712 231.128 241.935 232.187Z" fill="#E28B6D"/>
<path d="M255.07 223.364C251.267 222.14 250.776 215.213 250.451 210.629L250.399 209.911L251.047 209.863L251.098 210.582C251.392 214.724 251.883 221.656 255.267 222.745L255.07 223.364Z" fill="#E28B6D"/>
<path d="M53.5773 114.62C55.0207 116.902 54.3133 119.56 52.4338 121.365C54.1234 123.786 53.6848 126.371 52.0538 129.041C56.6374 135.09 47.358 141.239 37.3402 136.283C32.6062 139.939 26.1347 140.756 18.4756 139.652L0.852497 146.581L-37.3415 161.596L-50.5508 126.737L-0.92905 113.838L8.6777 111.341C11.6099 108.837 16.4814 106.111 21.9085 103.325C25.3891 99.9407 29.5867 88.8703 33.7496 78.2073C41.7409 82.6426 38.6175 91.9925 34.6721 101.71C48.2828 100.177 54.6658 106.238 53.5773 114.62Z" fill="#F9B384"/>
<path d="M40.4255 118.102C38.7635 118.102 37.1014 117.777 35.5541 117.132C32.9851 116.064 32.1295 114.634 31.881 114.069C31.4843 113.167 31.7293 111.391 32.7258 110.183C33.5156 109.226 34.6185 108.85 35.8336 109.123L39.5581 110.054L45.0604 106.661L45.4368 107.271L39.6775 110.824L35.6676 109.822C34.4751 109.553 33.7092 110.119 33.279 110.641C32.4868 111.601 32.2335 113.091 32.537 113.782C32.7509 114.268 33.4989 115.504 35.8289 116.473C38.2604 117.484 40.9931 117.663 43.525 116.976L53.4843 114.277L53.6719 114.969L43.7126 117.668C42.6408 117.957 41.5332 118.102 40.4255 118.102Z" fill="#E28B6D"/>
<path d="M39.7721 124.787C38.7911 124.787 37.9117 124.671 37.2079 124.394C33.0844 122.769 30.9803 119.626 30.77 118.305C30.574 117.071 32.3484 115.266 32.5515 115.064L33.0569 115.573C32.3902 116.235 31.3722 117.533 31.4773 118.193C31.6159 119.06 33.3592 122.107 37.4696 123.727C41.4497 125.296 52.1951 121.075 52.3039 121.032L52.5679 121.698C52.1916 121.848 44.7057 124.787 39.7721 124.787Z" fill="#E28B6D"/>
<path d="M42.3705 131.053C40.7228 131.053 39.0321 130.878 37.4405 130.418C30.7827 128.492 29.1971 127.273 28.7072 125.822C28.424 124.98 28.7478 123.541 29.7802 122.586C30.4362 121.979 31.9095 121.122 34.4163 122.192L34.1343 122.851C32.1054 121.986 30.9117 122.515 30.2653 123.113C29.4122 123.903 29.2055 125.06 29.3847 125.593C29.7766 126.757 31.3299 127.905 37.6377 129.731C43.8115 131.516 51.853 128.731 51.9331 128.702L52.1708 129.379C51.9211 129.467 47.3424 131.053 42.3705 131.053Z" fill="#E28B6D"/>
<path d="M37.1587 136.594C34.6602 135.151 31.3624 131.924 31.6683 129.945C31.7471 129.431 32.0984 128.763 33.3172 128.496L33.4713 129.196C32.476 129.414 32.4019 129.897 32.3768 130.055C32.151 131.514 35.0151 134.529 37.5172 135.974L37.1587 136.594Z" fill="#E28B6D"/>
<path d="M26.0033 126.166L25.8945 125.457C29.2617 124.941 30.7887 118.418 31.7004 114.522L31.8593 113.843L32.5571 114.008L32.3982 114.684C31.3838 119.022 29.8495 125.576 26.0033 126.166Z" fill="#E28B6D"/>
<path d="M-0.393261 113.794C-2.57629 124.541 -2.01589 135.481 0.852989 146.581L-50.7188 167.796L-50.5503 126.737L-0.928558 113.838L-0.393261 113.794Z" fill="#EE6F57"/>
<path d="M18.4713 242.327C18.4713 242.327 25.8795 231.096 0.0703125 209.349L3.17697 237.548L18.4713 242.327Z" fill="#102048"/>
<path d="M-26.4206 261.911L25.8262 231.04C33.6514 230.914 39.9866 229.057 44.128 224.649C54.9308 227.993 63.216 220.361 57.6695 215.052C58.8703 212.122 58.893 209.472 56.8187 207.324C58.4031 205.222 58.6875 202.447 56.8784 200.404C56.6204 191.855 49.2743 186.823 35.9205 190.537C38.3042 180.197 39.9221 170.352 31.227 167.205C28.7811 178.525 26.3615 190.259 23.4293 194.196C18.4527 197.85 14.0221 201.353 11.4961 204.325L-45.21 229.205L-26.4206 261.911Z" fill="#F9B384"/>
<path d="M42.2508 206.109C41.2567 206.109 40.2602 205.994 39.2864 205.761C36.5632 205.11 35.4891 203.829 35.1533 203.308C34.6204 202.482 34.5822 200.689 35.3755 199.337C36.0017 198.27 37.0292 197.722 38.2683 197.803L42.1564 198.137L47.1235 193.852L47.5381 194.332L42.3691 198.793L38.2217 198.437C36.9635 198.356 36.2765 199.058 35.924 199.659C35.2788 200.759 35.2668 202.311 35.6874 202.964C35.9813 203.42 36.936 204.545 39.4345 205.143C42.0346 205.766 44.8043 205.505 47.2322 204.41L56.7482 200.117L57.0099 200.695L47.4939 204.988C45.8474 205.73 44.0515 206.109 42.2508 206.109Z" fill="#E28B6D"/>
<path d="M43.2318 212.859C42.8268 212.859 42.448 212.825 42.1015 212.748C37.739 211.79 35.1461 209.006 34.7267 207.727C34.3396 206.547 35.8117 204.477 35.9813 204.244L36.4951 204.618C35.93 205.394 35.115 206.871 35.3313 207.529C35.6109 208.38 37.8525 211.164 42.2389 212.127C46.4819 213.057 56.5582 207.111 56.6586 207.05L56.9836 207.596C56.5929 207.829 48.0734 212.859 43.2318 212.859Z" fill="#E28B6D"/>
<path d="M45.1519 218.839C44.5293 218.839 43.9092 218.804 43.2962 218.729C36.3552 217.874 34.5833 216.92 33.8687 215.56C33.4661 214.795 33.5616 213.295 34.4172 212.205C34.968 211.502 36.2871 210.423 38.9397 211.083L38.7856 211.699C36.5978 211.153 35.4734 211.887 34.9166 212.597C34.1782 213.538 34.1603 214.75 34.4303 215.264C35.0146 216.375 36.7591 217.283 43.3727 218.097C49.8417 218.894 57.4411 214.813 57.5176 214.773L57.821 215.331C57.5331 215.488 51.2911 218.839 45.1519 218.839Z" fill="#E28B6D"/>
<path d="M44.016 224.947C41.3 223.91 37.5051 221.232 37.4932 219.226C37.4908 218.714 37.7286 218.009 38.8792 217.555L39.1122 218.147C38.1241 218.536 38.1277 219.054 38.1277 219.223C38.136 220.777 41.4793 223.3 44.2418 224.354L44.016 224.947Z" fill="#E28B6D"/>
<path d="M31.1694 216.317L30.9746 215.712C34.2844 214.647 34.7659 207.868 35.0527 203.817L35.1029 203.112L35.7362 203.159L35.686 203.862C35.3682 208.346 34.8878 215.119 31.1694 216.317Z" fill="#E28B6D"/>
<path d="M0.0707703 209.349C2.53101 220.65 8.43485 232.768 18.4718 242.327L-40.3158 276.739L-71.8604 233.724L0.0707703 209.349Z" fill="#708CD5"/>
<path d="M330.768 129.637L312.624 163.337L272.966 141.355L258.767 133.482C250.827 133.568 244.347 131.862 240.023 127.506C229.161 131.199 220.545 123.692 226.022 118.151C224.725 115.214 224.623 112.524 226.671 110.29C225.003 108.199 224.64 105.394 226.416 103.274C226.442 94.5925 233.75 89.2837 247.396 92.6795C244.692 82.2579 242.775 72.3166 251.507 68.8801C254.303 80.2935 257.087 92.1275 260.169 96.0395C265.317 99.6098 269.91 103.039 272.557 105.982L280.983 109.407L330.768 129.637Z" fill="#F9B384"/>
<path d="M241.054 108.689C239.342 108.689 237.635 108.354 236.049 107.691L226.277 103.602L226.553 102.94L236.325 107.029C238.813 108.069 241.62 108.256 244.233 107.554C246.737 106.882 247.668 105.723 247.951 105.255C248.354 104.591 248.298 103.035 247.619 101.948C247.25 101.357 246.547 100.673 245.281 100.79L241.076 101.268L235.697 96.8793L236.151 96.3237L241.296 100.521L245.208 100.077C246.487 99.9609 247.554 100.49 248.227 101.569C249.077 102.93 249.086 104.767 248.563 105.628C248.234 106.169 247.173 107.508 244.417 108.247C243.32 108.542 242.186 108.689 241.054 108.689Z" fill="#E28B6D"/>
<path d="M240.407 115.562C235.449 115.562 226.892 110.822 226.496 110.6L226.845 109.974C226.95 110.033 237.313 115.779 241.587 114.718C245.994 113.622 248.182 110.752 248.44 109.886C248.637 109.224 247.774 107.764 247.184 106.999L247.752 106.562C247.931 106.793 249.491 108.866 249.127 110.091C248.735 111.407 246.172 114.317 241.761 115.414C241.352 115.516 240.897 115.562 240.407 115.562Z" fill="#E28B6D"/>
<path d="M238.344 121.685C232.263 121.685 226.152 118.618 225.861 118.471L226.186 117.831C226.265 117.871 234.078 121.792 240.604 120.805C247.273 119.797 249.012 118.836 249.569 117.702C249.824 117.183 249.771 115.971 249.006 115.049C248.428 114.352 247.279 113.649 245.094 114.258L244.902 113.567C247.59 112.819 248.972 113.887 249.557 114.591C250.477 115.699 250.612 117.204 250.211 118.018C249.52 119.428 247.743 120.452 240.711 121.514C239.931 121.632 239.137 121.685 238.344 121.685Z" fill="#E28B6D"/>
<path d="M240.162 127.839L239.889 127.177C242.633 126.042 245.957 123.354 245.925 121.837C245.922 121.671 245.911 121.165 244.92 120.806L245.165 120.132C246.365 120.567 246.63 121.291 246.642 121.821C246.686 123.871 242.897 126.708 240.162 127.839Z" fill="#E28B6D"/>
<path d="M252.929 118.728C249.099 117.612 248.422 110.736 247.974 106.187L247.903 105.478L248.617 105.405L248.687 106.117C249.091 110.209 249.765 117.057 253.13 118.038L252.929 118.728Z" fill="#E28B6D"/>
<path d="M330.768 129.637L324.948 171.142L272.968 141.355C277.451 133.887 281.095 124.945 280.984 109.405L330.768 129.637Z" fill="#1F3C88"/>
</g>
<defs>
<clipPath id="clip0_72_2345">
<rect width="280" height="280" fill="white"/>
</clipPath>
</defs>
</svg>
