<svg width="64" height="43" viewBox="0 0 64 43" fill="none" xmlns="http://www.w3.org/2000/svg">
<path d="M64 11.3344C64 7.81906 61.2681 4.95907 57.9102 4.95907C54.5522 4.95907 51.8208 7.81906 51.8208 11.3344C51.8208 13.0243 52.4531 14.5619 53.4824 15.7038C51.6519 17.8477 48.9937 19.2008 46.0376 19.2008C41.2524 19.2008 37.2446 15.6594 36.2749 10.9495C37.3945 9.79269 38.0898 8.1871 38.0898 6.41437C38.0898 2.89906 35.3579 0.0390625 32 0.0390625C28.6421 0.0390625 25.9102 2.89906 25.9102 6.41437C25.9102 8.1871 26.606 9.79269 27.7251 10.9495C26.7554 15.6594 22.7476 19.2008 17.9624 19.2008C15.0063 19.2008 12.3481 17.8477 10.5176 15.7038C11.5469 14.5619 12.1797 13.0243 12.1797 11.3344C12.1797 7.81906 9.44775 4.95907 6.08984 4.95907C2.73193 4.95907 0 7.81906 0 11.3344C0 14.3809 2.05225 16.9337 4.78516 17.5604C5.43311 23.1587 6.80566 30.2231 9.70898 35.0286V40.9147C9.70898 42.0045 10.5527 42.8884 11.5938 42.8884H52.4062C53.4473 42.8884 54.291 42.0045 54.291 40.9147V35.0286C57.1943 30.2231 58.5669 23.1593 59.2148 17.5604C61.9478 16.9332 64 14.3809 64 11.3344ZM55.5903 11.3344C55.5903 9.99511 56.6309 8.9053 57.9102 8.9053C59.1895 8.9053 60.2305 9.99511 60.2305 11.3344C60.2305 12.6736 59.1895 13.7629 57.9102 13.7629C56.6309 13.7629 55.5903 12.6736 55.5903 11.3344ZM29.6797 6.41437C29.6797 5.0751 30.7207 3.98529 32 3.98529C33.2793 3.98529 34.3198 5.0751 34.3198 6.41437C34.3198 7.75363 33.2793 8.84293 32 8.84293C30.7207 8.84293 29.6797 7.75363 29.6797 6.41437ZM3.76953 11.3344C3.76953 9.99511 4.81055 8.9053 6.08984 8.9053C7.36914 8.9053 8.40967 9.99511 8.40967 11.3344C8.40967 12.6736 7.36914 13.7629 6.08984 13.7629C4.81055 13.7629 3.76953 12.6736 3.76953 11.3344ZM13.4785 38.9416V36.4149H50.5215V38.9416H13.4785ZM51.3706 32.4682H12.6299C10.646 28.9452 9.50684 23.996 8.85352 19.5294C11.2817 21.7796 14.4722 23.147 17.9624 23.147C24.228 23.147 29.5278 18.7392 31.1836 12.7304C31.4507 12.7682 31.7231 12.7892 32 12.7892C32.2769 12.7892 32.5493 12.7682 32.8164 12.7304C34.4722 18.7392 39.772 23.147 46.0376 23.147C49.5288 23.147 52.7212 21.7786 55.1494 19.5264C54.4966 23.9925 53.3574 28.9411 51.3706 32.4682Z" fill="#E3A22D"/>
</svg>
