<svg width="64" height="67" viewBox="0 0 64 67" fill="none" xmlns="http://www.w3.org/2000/svg">
<g clip-path="url(#clip0_57_412)">
<path d="M63.7524 18.2689L53.0859 4.86908C52.8833 4.61561 52.5835 4.46826 52.2666 4.46826H11.7338C11.4171 4.46826 11.1173 4.61456 10.9146 4.86908L0.248102 18.2689C-0.0175196 18.6017 -0.0751438 19.065 0.100854 19.457C0.276851 19.8489 0.653346 20.1001 1.06722 20.1001H62.933C63.3469 20.1001 63.7234 19.8489 63.8994 19.457C64.0745 19.0662 64.018 18.6027 63.7524 18.2689ZM3.34468 17.8669L12.2331 6.70043H51.7664L60.6548 17.8669H3.34468Z" fill="#3AAA35" stroke="#3AAA35" stroke-width="0.3"/>
<path d="M32.987 5.15576C32.8217 4.7382 32.4324 4.4668 32.0014 4.4668H11.7351C11.3532 4.4668 11.0012 4.6801 10.8103 5.02739C10.6195 5.37469 10.6205 5.80011 10.8136 6.14623L18.2801 19.5461C18.4465 19.8442 18.7356 20.0463 19.0641 20.091C19.11 20.0966 19.1559 20.0998 19.2006 20.0998C19.4822 20.0998 19.7542 19.9838 19.9558 19.7727L32.7557 6.37287C33.0607 6.05358 33.1524 5.57333 32.987 5.15576ZM19.4246 17.1698L13.5911 6.70015H29.4255L19.4246 17.1698Z" fill="#3AAA35" stroke="#3AAA35" stroke-width="0.3"/>
<path d="M63.8875 18.4882C63.7082 18.1074 63.3371 17.8662 62.9317 17.8662H1.06594C0.66057 17.8662 0.29045 18.1074 0.110203 18.4882C-0.069045 18.869 -0.0274205 19.3234 0.218951 19.6607L31.1519 62.0935C31.3535 62.3703 31.6671 62.5334 31.9999 62.5334C32.3326 62.5334 32.6463 62.3703 32.8458 62.0935L63.7787 19.6607C64.0251 19.3234 64.0666 18.869 63.8875 18.4882ZM31.9999 59.5765L3.22266 20.1007H60.7771L31.9999 59.5765Z" fill="#3AAA35" stroke="#3AAA35" stroke-width="0.3"/>
<path d="M33.0185 61.0796L20.2186 18.6468C20.0779 18.1822 19.6671 17.8662 19.201 17.8662H1.06789C0.662523 17.8662 0.292403 18.1074 0.112156 18.4882C-0.0670919 18.869 -0.0254674 19.3234 0.220904 19.6607L31.1539 62.0935C31.3607 62.3782 31.6776 62.5334 32.0018 62.5334C32.1682 62.5334 32.3367 62.4932 32.4925 62.4061C32.9523 62.1572 33.1741 61.5966 33.0185 61.0796ZM3.22361 20.1007H18.4192L29.1454 55.6595L3.22361 20.1007Z" fill="#3AAA35"/>
<path d="M53.1917 5.02739C53.0018 4.6801 52.6488 4.4668 52.267 4.4668H32.0005C31.5696 4.4668 31.1803 4.7382 31.0149 5.15576C30.8495 5.57333 30.9413 6.05358 31.2464 6.37287L44.0462 19.7727C44.2467 19.9838 44.5187 20.0998 44.8003 20.0998C44.8462 20.0998 44.8921 20.0964 44.9379 20.091C45.2654 20.0463 45.5556 19.8453 45.7219 19.5461L53.1885 6.14623C53.3805 5.80011 53.3816 5.37469 53.1917 5.02739ZM44.5763 17.1698L34.5753 6.70015H50.4097L44.5763 17.1698Z" fill="#3AAA35"/>
<path d="M63.8904 18.4901C63.7111 18.1093 63.34 17.8682 62.9346 17.8682H44.8015C44.3354 17.8682 43.9236 18.1842 43.7839 18.6487L30.9841 61.0815C30.8283 61.5974 31.0502 62.158 31.5099 62.4082C31.6657 62.493 31.8342 62.5333 32.0005 62.5333C32.3238 62.5333 32.6405 62.3781 32.8485 62.0955L63.7815 19.6627C64.028 19.3253 64.0695 18.8708 63.8904 18.4901ZM34.8561 55.6589L45.5824 20.1002H60.7779L34.8561 55.6589Z" fill="#3AAA35"/>
</g>
<defs>
<clipPath id="clip0_57_412">
<rect width="64" height="67" fill="white"/>
</clipPath>
</defs>
</svg>
