<svg width="1440" height="1121" viewBox="0 0 1440 1121" fill="none" xmlns="http://www.w3.org/2000/svg">
<g opacity="0.6" filter="url(#filter0_f_175_994)">
<ellipse cx="222.5" cy="295" rx="222.5" ry="296" fill="url(#paint0_linear_175_994)"/>
<ellipse cx="222.5" cy="295" rx="222.5" ry="296" fill="white" fill-opacity="0.6"/>
</g>
<g filter="url(#filter1_d_175_994)">
<circle cx="824" cy="80" r="5" fill="#1D71B8"/>
</g>
<g opacity="0.7" filter="url(#filter2_f_175_994)">
<ellipse cx="1108" cy="525" rx="332" ry="296" fill="url(#paint1_linear_175_994)"/>
<ellipse cx="1108" cy="525" rx="332" ry="296" fill="white" fill-opacity="0.6"/>
</g>
<path d="M622 -1C657.667 16.8333 735.7 83.9 762.5 209.5C789.3 335.1 958.167 392 1000.5 422" stroke="#1B75BC"/>
<path d="M622 -1C657.667 16.8333 735.7 83.9 762.5 209.5C789.3 335.1 958.167 392 1000.5 422" stroke="white" stroke-opacity="0.8"/>
<path d="M482 -1C517.667 16.8333 622.764 104.749 666.5 225.5C735.5 416 967.167 479 1009.5 509" stroke="#1B75BC"/>
<path d="M482 -1C517.667 16.8333 622.764 104.749 666.5 225.5C735.5 416 967.167 479 1009.5 509" stroke="white" stroke-opacity="0.8"/>
<path d="M743 -1C778.667 16.8333 856.7 83.9 883.5 209.5C910.3 335.1 1001.67 426.5 1044 456.5" stroke="#1B75BC"/>
<path d="M743 -1C778.667 16.8333 856.7 83.9 883.5 209.5C910.3 335.1 1001.67 426.5 1044 456.5" stroke="white" stroke-opacity="0.8"/>
<path d="M861 -1C896.667 16.8333 974.7 83.9 1001.5 209.5C1028.3 335.1 1119.67 426.5 1162 456.5" stroke="#1B75BC"/>
<path d="M861 -1C896.667 16.8333 974.7 83.9 1001.5 209.5C1028.3 335.1 1119.67 426.5 1162 456.5" stroke="white" stroke-opacity="0.8"/>
<g filter="url(#filter3_d_175_994)">
<circle cx="751" cy="206" r="5" fill="#1D71B8"/>
</g>
<g filter="url(#filter4_d_175_994)">
<circle cx="1278" cy="442" r="10" fill="#39B54A"/>
<circle cx="1278" cy="442" r="10" fill="white" fill-opacity="0.4"/>
</g>
<g filter="url(#filter5_d_175_994)">
<circle cx="1313" cy="191" r="5" fill="#39B54A"/>
<circle cx="1313" cy="191" r="5" fill="white" fill-opacity="0.4"/>
</g>
<defs>
<filter id="filter0_f_175_994" x="-250" y="-251" width="945" height="1092" filterUnits="userSpaceOnUse" color-interpolation-filters="sRGB">
<feFlood flood-opacity="0" result="BackgroundImageFix"/>
<feBlend mode="normal" in="SourceGraphic" in2="BackgroundImageFix" result="shape"/>
<feGaussianBlur stdDeviation="125" result="effect1_foregroundBlur_175_994"/>
</filter>
<filter id="filter1_d_175_994" x="804" y="67" width="40" height="40" filterUnits="userSpaceOnUse" color-interpolation-filters="sRGB">
<feFlood flood-opacity="0" result="BackgroundImageFix"/>
<feColorMatrix in="SourceAlpha" type="matrix" values="0 0 0 0 0 0 0 0 0 0 0 0 0 0 0 0 0 0 127 0" result="hardAlpha"/>
<feOffset dy="7"/>
<feGaussianBlur stdDeviation="7.5"/>
<feComposite in2="hardAlpha" operator="out"/>
<feColorMatrix type="matrix" values="0 0 0 0 0.08125 0 0 0 0 0.285458 0 0 0 0 0.433333 0 0 0 0.2 0"/>
<feBlend mode="normal" in2="BackgroundImageFix" result="effect1_dropShadow_175_994"/>
<feBlend mode="normal" in="SourceGraphic" in2="effect1_dropShadow_175_994" result="shape"/>
</filter>
<filter id="filter2_f_175_994" x="476" y="-71" width="1264" height="1192" filterUnits="userSpaceOnUse" color-interpolation-filters="sRGB">
<feFlood flood-opacity="0" result="BackgroundImageFix"/>
<feBlend mode="normal" in="SourceGraphic" in2="BackgroundImageFix" result="shape"/>
<feGaussianBlur stdDeviation="150" result="effect1_foregroundBlur_175_994"/>
</filter>
<filter id="filter3_d_175_994" x="731" y="193" width="40" height="40" filterUnits="userSpaceOnUse" color-interpolation-filters="sRGB">
<feFlood flood-opacity="0" result="BackgroundImageFix"/>
<feColorMatrix in="SourceAlpha" type="matrix" values="0 0 0 0 0 0 0 0 0 0 0 0 0 0 0 0 0 0 127 0" result="hardAlpha"/>
<feOffset dy="7"/>
<feGaussianBlur stdDeviation="7.5"/>
<feComposite in2="hardAlpha" operator="out"/>
<feColorMatrix type="matrix" values="0 0 0 0 0.08125 0 0 0 0 0.285458 0 0 0 0 0.433333 0 0 0 0.2 0"/>
<feBlend mode="normal" in2="BackgroundImageFix" result="effect1_dropShadow_175_994"/>
<feBlend mode="normal" in="SourceGraphic" in2="effect1_dropShadow_175_994" result="shape"/>
</filter>
<filter id="filter4_d_175_994" x="1253" y="424" width="50" height="50" filterUnits="userSpaceOnUse" color-interpolation-filters="sRGB">
<feFlood flood-opacity="0" result="BackgroundImageFix"/>
<feColorMatrix in="SourceAlpha" type="matrix" values="0 0 0 0 0 0 0 0 0 0 0 0 0 0 0 0 0 0 127 0" result="hardAlpha"/>
<feOffset dy="7"/>
<feGaussianBlur stdDeviation="7.5"/>
<feComposite in2="hardAlpha" operator="out"/>
<feColorMatrix type="matrix" values="0 0 0 0 0.625 0 0 0 0 0.55 0 0 0 0 0.15625 0 0 0 0.2 0"/>
<feBlend mode="normal" in2="BackgroundImageFix" result="effect1_dropShadow_175_994"/>
<feBlend mode="normal" in="SourceGraphic" in2="effect1_dropShadow_175_994" result="shape"/>
</filter>
<filter id="filter5_d_175_994" x="1293" y="178" width="40" height="40" filterUnits="userSpaceOnUse" color-interpolation-filters="sRGB">
<feFlood flood-opacity="0" result="BackgroundImageFix"/>
<feColorMatrix in="SourceAlpha" type="matrix" values="0 0 0 0 0 0 0 0 0 0 0 0 0 0 0 0 0 0 127 0" result="hardAlpha"/>
<feOffset dy="7"/>
<feGaussianBlur stdDeviation="7.5"/>
<feComposite in2="hardAlpha" operator="out"/>
<feColorMatrix type="matrix" values="0 0 0 0 0.625 0 0 0 0 0.55 0 0 0 0 0.15625 0 0 0 0.2 0"/>
<feBlend mode="normal" in2="BackgroundImageFix" result="effect1_dropShadow_175_994"/>
<feBlend mode="normal" in="SourceGraphic" in2="effect1_dropShadow_175_994" result="shape"/>
</filter>
<linearGradient id="paint0_linear_175_994" x1="130.743" y1="156.692" x2="430.375" y2="445.636" gradientUnits="userSpaceOnUse">
<stop stop-color="#1B75BC"/>
<stop offset="1" stop-color="#1B75BC" stop-opacity="0"/>
</linearGradient>
<linearGradient id="paint1_linear_175_994" x1="971.087" y1="386.692" x2="1252.1" y2="791.052" gradientUnits="userSpaceOnUse">
<stop stop-color="#1B75BC"/>
<stop offset="1" stop-color="#1B75BC" stop-opacity="0"/>
</linearGradient>
</defs>
</svg>
