<svg width="83" height="63" viewBox="0 0 83 63" fill="none" xmlns="http://www.w3.org/2000/svg">
<path d="M1.18666 60.5257C0.807673 60.5257 0.515667 60.4263 0.310643 60.2151C0.105618 60.0101 0 59.7057 0 59.3142V52.4366C0 52.0452 0.105618 51.7408 0.310643 51.5357C0.515667 51.3307 0.807673 51.2251 1.18666 51.2251C1.56564 51.2251 1.85765 51.3307 2.06267 51.5357C2.26769 51.7408 2.37331 52.0452 2.37331 52.4366V54.841H6.11344V52.4366C6.11344 52.0452 6.21285 51.7408 6.42408 51.5357C6.62911 51.3307 6.92111 51.2251 7.3001 51.2251C7.67908 51.2251 7.96487 51.3307 8.16989 51.5357C8.36871 51.7408 8.47433 52.0452 8.47433 52.4366V59.3142C8.47433 59.7057 8.37492 60.0101 8.16989 60.2151C7.97108 60.4201 7.67908 60.5257 7.3001 60.5257C6.9149 60.5257 6.6229 60.4263 6.41788 60.2151C6.21906 60.0101 6.11344 59.7057 6.11344 59.3142V56.7794H2.37331V59.3142C2.37331 59.7057 2.2739 60.0101 2.06888 60.2151C1.87007 60.4201 1.57185 60.5257 1.18666 60.5257Z" fill="#1B75BC"/>
<path d="M12.0408 60.5505C11.55 60.5505 11.1213 60.4573 10.7485 60.2834C10.3758 60.1032 10.0838 59.8547 9.87252 59.544C9.66128 59.2334 9.55566 58.873 9.55566 58.4692C9.55566 58.0157 9.67371 57.6491 9.91601 57.382C10.1583 57.1148 10.5435 56.9222 11.0716 56.8042C11.5997 56.6861 12.308 56.6302 13.1902 56.6302H13.681V56.45C13.681 56.1394 13.6002 55.9219 13.4449 55.7915C13.2896 55.661 13.0162 55.5989 12.631 55.5989C12.4136 55.5989 12.1837 55.6237 11.929 55.6672C11.6742 55.7169 11.3885 55.7977 11.0716 55.9157C10.7858 56.0214 10.5497 56.0151 10.3633 55.9033C10.1769 55.7915 10.0527 55.6299 9.99677 55.4187C9.94086 55.2075 9.9595 55.0025 10.0589 54.7912C10.1583 54.58 10.3509 54.4247 10.6305 54.319C11.0405 54.1761 11.4195 54.0705 11.7674 54.0146C12.1154 53.9587 12.4322 53.9338 12.7242 53.9338C13.7804 53.9338 14.5632 54.1637 15.0727 54.6172C15.5821 55.0708 15.8369 55.7853 15.8369 56.7669V59.3639C15.8369 60.1343 15.4827 60.5194 14.7807 60.5194C14.1097 60.5194 13.7556 60.1777 13.7121 59.4943C13.594 59.8236 13.3828 60.0783 13.097 60.2647C12.8174 60.4573 12.4633 60.5505 12.0408 60.5505ZM12.5565 59.0594C12.8733 59.0594 13.1405 58.9538 13.3579 58.7488C13.5754 58.5438 13.6872 58.2704 13.6872 57.9411V57.7112H13.1964C12.6869 57.7112 12.3204 57.7672 12.0843 57.8728C11.8482 57.9784 11.7302 58.1462 11.7302 58.3822C11.7302 58.5811 11.8047 58.7426 11.9414 58.873C12.0905 58.9973 12.2893 59.0594 12.5565 59.0594Z" fill="#1B75BC"/>
<path d="M18.1102 62.843C17.3585 62.843 16.9795 62.4578 16.9795 61.6874V55.1204C16.9795 54.3562 17.3523 53.9772 18.0978 53.9772C18.775 53.9772 19.1478 54.2941 19.2161 54.9278C19.3901 54.6296 19.6448 54.3873 19.9927 54.2133C20.3406 54.0394 20.7258 53.9524 21.1421 53.9524C21.6826 53.9524 22.161 54.0829 22.5773 54.35C22.9935 54.6172 23.3166 54.9962 23.5527 55.487C23.7888 55.9778 23.9068 56.568 23.9068 57.2576C23.9068 57.9348 23.7888 58.5251 23.5589 59.0221C23.329 59.5191 23.006 59.8981 22.5897 60.1652C22.1734 60.4324 21.6888 60.5629 21.1421 60.5629C20.7445 60.5629 20.3779 60.4821 20.0424 60.3206C19.7069 60.159 19.446 59.9416 19.2658 59.6682V61.6998C19.2658 62.0788 19.1664 62.3646 18.9614 62.5634C18.7626 62.7436 18.4768 62.843 18.1102 62.843ZM20.4276 58.8668C20.7693 58.8668 21.0551 58.7363 21.2788 58.4815C21.5024 58.2268 21.6143 57.8106 21.6143 57.2452C21.6143 56.6736 21.5024 56.2574 21.2788 56.0026C21.0551 55.7479 20.7693 55.6237 20.4276 55.6237C20.0735 55.6237 19.7877 55.7479 19.564 56.0026C19.3404 56.2574 19.2285 56.6674 19.2285 57.2452C19.2285 57.8106 19.3404 58.2206 19.564 58.4815C19.7877 58.7425 20.0735 58.8668 20.4276 58.8668Z" fill="#1B75BC"/>
<path d="M25.9325 62.843C25.1807 62.843 24.8018 62.4578 24.8018 61.6874V55.1204C24.8018 54.3562 25.1745 53.9772 25.9201 53.9772C26.5973 53.9772 26.97 54.2941 27.0384 54.9278C27.2123 54.6296 27.4671 54.3873 27.815 54.2133C28.1629 54.0394 28.5481 53.9524 28.9644 53.9524C29.5049 53.9524 29.9833 54.0829 30.3995 54.35C30.8158 54.6172 31.1389 54.9962 31.375 55.487C31.611 55.9778 31.7291 56.568 31.7291 57.2576C31.7291 57.9348 31.611 58.5251 31.3812 59.0221C31.1513 59.5191 30.8282 59.8981 30.412 60.1652C29.9957 60.4324 29.5111 60.5629 28.9644 60.5629C28.5667 60.5629 28.2064 60.4821 27.8647 60.3206C27.523 60.159 27.2683 59.9416 27.0881 59.6682V61.6998C27.0881 62.0788 26.9887 62.3646 26.7837 62.5634C26.5911 62.7436 26.3053 62.843 25.9325 62.843ZM28.2499 58.8668C28.5916 58.8668 28.8774 58.7363 29.101 58.4815C29.3247 58.2268 29.4365 57.8106 29.4365 57.2452C29.4365 56.6736 29.3247 56.2574 29.101 56.0026C28.8774 55.7479 28.5978 55.6237 28.2499 55.6237C27.8958 55.6237 27.61 55.7479 27.3863 56.0026C27.1626 56.2574 27.0508 56.6674 27.0508 57.2452C27.0508 57.8106 27.1626 58.2206 27.3863 58.4815C27.61 58.7363 27.8958 58.8668 28.2499 58.8668Z" fill="#1B75BC"/>
<path d="M34.2946 62.8431C34.0274 62.8431 33.81 62.7748 33.6422 62.6381C33.4745 62.5014 33.3751 62.3213 33.3378 62.1038C33.3067 61.8864 33.344 61.6441 33.4558 61.3893L34.1082 59.9728L32.1139 55.425C31.9399 55.0398 31.9399 54.6981 32.1139 54.4061C32.2878 54.1141 32.6171 53.9712 33.1141 53.9712C33.3813 53.9712 33.5987 54.0333 33.7727 54.1576C33.9467 54.2818 34.0958 54.5241 34.2325 54.8845L35.3135 57.674L36.4442 54.872C36.5809 54.5179 36.7362 54.2818 36.9102 54.1576C37.0841 54.0333 37.3264 53.9712 37.6247 53.9712C38.0036 53.9712 38.2708 54.1203 38.4261 54.4061C38.5877 54.6981 38.5814 55.0336 38.4075 55.425L35.4874 61.9795C35.3321 62.315 35.1644 62.5387 34.978 62.663C34.8102 62.781 34.5742 62.8431 34.2946 62.8431Z" fill="#1B75BC"/>
<path d="M42.7445 60.5505C42.2226 60.5505 41.6821 60.4946 41.1292 60.389C40.5762 60.2834 40.1041 60.1281 39.7064 59.9355C39.4766 59.8236 39.315 59.6745 39.2156 59.4882C39.1224 59.3018 39.0851 59.103 39.1162 58.9041C39.1411 58.7053 39.2156 58.5252 39.3337 58.3636C39.4517 58.2083 39.6132 58.0965 39.8058 58.0405C40.0046 57.9846 40.2283 58.0095 40.4768 58.1213C40.7999 58.2829 41.1727 58.4071 41.5827 58.4879C41.9928 58.5686 42.3779 58.6121 42.7383 58.6121C43.3037 58.6121 43.7013 58.5376 43.925 58.3885C44.1548 58.2394 44.2667 58.053 44.2667 57.8293C44.2667 57.6305 44.1859 57.4752 44.0306 57.3509C43.8752 57.2329 43.5895 57.1273 43.1918 57.0403L41.6883 56.7172C40.0606 56.3631 39.2467 55.5119 39.2467 54.1575C39.2467 53.5673 39.4082 53.0454 39.7251 52.6043C40.0481 52.157 40.4955 51.8153 41.067 51.5668C41.6386 51.3245 42.3096 51.2002 43.0738 51.2002C43.5211 51.2002 43.9684 51.2499 44.4282 51.3493C44.8879 51.4487 45.2856 51.5978 45.6148 51.7904C45.8696 51.9271 46.0373 52.1135 46.1057 52.3496C46.174 52.5857 46.1678 52.8155 46.0808 53.0392C45.9938 53.2629 45.8447 53.4244 45.6211 53.53C45.4036 53.6356 45.124 53.617 44.7948 53.4803C44.5338 53.3685 44.2542 53.2877 43.9436 53.2318C43.6329 53.1759 43.3347 53.1448 43.0427 53.1448C42.5643 53.1448 42.1916 53.2318 41.9368 53.3933C41.6821 53.5611 41.5516 53.7785 41.5516 54.0395C41.5516 54.2259 41.6324 54.3812 41.7815 54.4992C41.9368 54.6173 42.2102 54.7229 42.6016 54.8099L44.0927 55.1329C45.7453 55.4871 46.5716 56.3134 46.5716 57.6243C46.5716 58.2145 46.4101 58.7302 46.0932 59.1651C45.7764 59.6 45.3291 59.9417 44.7575 60.184C44.1983 60.4325 43.5211 60.5505 42.7445 60.5505Z" fill="#39B54A"/>
<path d="M50.6413 60.5505C49.6783 60.5505 48.9701 60.3268 48.5041 59.8795C48.0443 59.4321 47.8082 58.7612 47.8082 57.8603V55.7666H47.3734C46.7956 55.7666 46.5098 55.487 46.5098 54.9154C46.5098 54.3563 46.7956 54.0767 47.3734 54.0767H47.8082V53.2814C47.8082 52.9024 47.9077 52.6167 48.1065 52.4179C48.3053 52.219 48.5849 52.1196 48.9576 52.1196C49.7218 52.1196 50.1008 52.5048 50.1008 53.2752V54.0705H51.157C51.741 54.0705 52.033 54.35 52.033 54.9092C52.033 55.4746 51.741 55.7604 51.157 55.7604H50.1008V57.7795C50.1008 58.3946 50.4114 58.7053 51.0389 58.7053C51.157 58.7053 51.275 58.6928 51.3869 58.668C51.4987 58.6431 51.6043 58.6307 51.6975 58.6307C51.8342 58.6245 51.946 58.6618 52.033 58.7549C52.12 58.8419 52.1635 59.047 52.1635 59.3638C52.1635 59.6185 52.1262 59.836 52.0454 60.0162C51.9709 60.1901 51.828 60.3206 51.6354 60.3952C51.5173 60.4386 51.3496 60.4759 51.1446 60.507C50.9395 60.538 50.7718 60.5505 50.6413 60.5505Z" fill="#39B54A"/>
<path d="M54.9959 60.5505C54.5051 60.5505 54.0764 60.4573 53.7036 60.2834C53.3308 60.1032 53.0388 59.8547 52.8276 59.544C52.6164 59.2334 52.5107 58.873 52.5107 58.4692C52.5107 58.0157 52.6288 57.6491 52.8711 57.382C53.1134 57.1148 53.4986 56.9222 54.0267 56.8042C54.561 56.6861 55.263 56.6302 56.1453 56.6302H56.6361V56.45C56.6361 56.1394 56.5553 55.9219 56.4 55.7915C56.2447 55.661 55.9713 55.5989 55.5861 55.5989C55.3687 55.5989 55.1388 55.6237 54.884 55.6672C54.6293 55.7169 54.3435 55.7977 54.0267 55.9157C53.7409 56.0214 53.511 56.0151 53.3184 55.9033C53.132 55.7915 53.0078 55.6299 52.9518 55.4187C52.8959 55.2075 52.9146 55.0025 53.014 54.7912C53.1134 54.58 53.306 54.4247 53.5856 54.319C53.9956 54.1761 54.3746 54.0705 54.7225 54.0146C55.0704 53.9587 55.3873 53.9338 55.6793 53.9338C56.7355 53.9338 57.5183 54.1637 58.0277 54.6172C58.5372 55.0708 58.7919 55.7853 58.7919 56.7669V59.3639C58.7919 60.1343 58.4378 60.5194 57.7357 60.5194C57.0648 60.5194 56.7106 60.1777 56.6671 59.4943C56.5491 59.8236 56.3441 60.0783 56.0521 60.2647C55.7725 60.4573 55.4184 60.5505 54.9959 60.5505ZM55.5115 59.0594C55.8284 59.0594 56.0956 58.9538 56.313 58.7488C56.5305 58.5438 56.6423 58.2704 56.6423 57.9411V57.7112H56.1515C55.6482 57.7112 55.2755 57.7672 55.0394 57.8728C54.8033 57.9784 54.6852 58.1462 54.6852 58.3822C54.6852 58.5811 54.7536 58.7426 54.8965 58.873C55.0456 58.9973 55.2444 59.0594 55.5115 59.0594Z" fill="#39B54A"/>
<path d="M63.2409 60.5505C62.2779 60.5505 61.5697 60.3268 61.1037 59.8795C60.644 59.4321 60.4079 58.7612 60.4079 57.8603V55.7666H59.973C59.3952 55.7666 59.1094 55.487 59.1094 54.9154C59.1094 54.3563 59.3952 54.0767 59.973 54.0767H60.4079V53.2814C60.4079 52.9024 60.5073 52.6167 60.7061 52.4179C60.9049 52.219 61.1845 52.1196 61.5572 52.1196C62.3214 52.1196 62.7004 52.5048 62.7004 53.2752V54.0705H63.7566C64.3406 54.0705 64.6326 54.35 64.6326 54.9092C64.6326 55.4746 64.3406 55.7604 63.7566 55.7604H62.7004V57.7795C62.7004 58.3946 63.011 58.7053 63.6385 58.7053C63.7566 58.7053 63.8746 58.6928 63.9865 58.668C64.0983 58.6431 64.1977 58.6307 64.2971 58.6307C64.4338 58.6245 64.5456 58.6618 64.6326 58.7549C64.7196 58.8419 64.7631 59.047 64.7631 59.3638C64.7631 59.6185 64.7258 59.836 64.645 60.0162C64.5705 60.1901 64.4276 60.3206 64.235 60.3952C64.1169 60.4386 63.9492 60.4759 63.7442 60.507C63.5391 60.538 63.3714 60.5505 63.2409 60.5505Z" fill="#39B54A"/>
<path d="M66.5024 53.0578C66.0986 53.0578 65.7879 52.9646 65.5705 52.772C65.353 52.5856 65.2412 52.3122 65.2412 51.9519C65.2412 51.5977 65.353 51.3306 65.5705 51.1442C65.7879 50.9578 66.0986 50.8584 66.5024 50.8584C67.3536 50.8584 67.7761 51.225 67.7761 51.9519C67.7761 52.3122 67.6642 52.5856 67.4468 52.772C67.2293 52.9584 66.9125 53.0578 66.5024 53.0578ZM66.5024 60.5256C66.1359 60.5256 65.8501 60.42 65.6575 60.2025C65.4649 59.9913 65.3655 59.6806 65.3655 59.2768V55.2136C65.3655 54.8098 65.4649 54.5053 65.6575 54.2879C65.8501 54.0766 66.1297 53.9648 66.5024 53.9648C66.869 53.9648 67.1548 54.0704 67.3598 54.2879C67.5586 54.5053 67.6642 54.8098 67.6642 55.2136V59.2768C67.6642 59.6806 67.5648 59.9913 67.366 60.2025C67.1672 60.42 66.8814 60.5256 66.5024 60.5256Z" fill="#39B54A"/>
<path d="M71.9568 60.5504C71.2548 60.5504 70.6397 60.4199 70.1178 60.1528C69.5959 59.8856 69.1859 59.5067 68.8939 59.0096C68.6019 58.5126 68.459 57.9224 68.459 57.2452C68.459 56.5618 68.6019 55.9715 68.8939 55.4745C69.1859 54.9837 69.5897 54.6047 70.1178 54.3376C70.6397 54.0704 71.2548 53.9399 71.9568 53.9399C72.6589 53.9399 73.2739 54.0704 73.7958 54.3376C74.3177 54.6047 74.7215 54.9837 75.0135 55.4745C75.2993 55.9653 75.4422 56.5556 75.4422 57.2452C75.4422 57.9224 75.2993 58.5126 75.0135 59.0096C74.7277 59.5067 74.3239 59.8856 73.7958 60.1528C73.2677 60.4199 72.6589 60.5504 71.9568 60.5504ZM71.9568 58.8667C72.2985 58.8667 72.5843 58.7363 72.808 58.4815C73.0316 58.2268 73.1435 57.8106 73.1435 57.2452C73.1435 56.6736 73.0316 56.2573 72.808 56.0026C72.5843 55.7479 72.3047 55.6236 71.9568 55.6236C71.6027 55.6236 71.3169 55.7479 71.0932 56.0026C70.8696 56.2573 70.7577 56.6674 70.7577 57.2452C70.7577 57.8106 70.8696 58.2206 71.0932 58.4815C71.3169 58.7363 71.6027 58.8667 71.9568 58.8667Z" fill="#39B54A"/>
<path d="M77.425 60.5256C77.0585 60.5256 76.7727 60.4262 76.5801 60.2274C76.3875 60.0286 76.2881 59.7428 76.2881 59.3638V55.108C76.2881 54.3438 76.6608 53.9648 77.4064 53.9648C78.0836 53.9648 78.4501 54.2941 78.5123 54.9526C78.7297 54.6296 79.0093 54.3748 79.3697 54.2009C79.7238 54.0269 80.1214 53.9399 80.5563 53.9399C81.3081 53.9399 81.8672 54.1636 82.2338 54.6109C82.6003 55.0583 82.7805 55.7417 82.7805 56.6674V59.37C82.7805 59.749 82.6811 60.0348 82.4823 60.2336C82.2835 60.4324 82.0039 60.5318 81.6373 60.5318C81.2708 60.5318 80.985 60.4324 80.7862 60.2336C80.5874 60.0348 80.488 59.749 80.488 59.37V56.7606C80.488 56.3754 80.4196 56.102 80.2892 55.9343C80.1587 55.7727 79.9599 55.692 79.7052 55.692C79.3634 55.692 79.0901 55.8038 78.8788 56.0213C78.6738 56.2387 78.5682 56.5307 78.5682 56.9035V59.37C78.5806 60.1404 78.1954 60.5256 77.425 60.5256Z" fill="#39B54A"/>
<path d="M41.6948 40.9116C35.5006 40.9116 29.6853 38.501 25.3053 34.121C20.9252 29.7409 18.5146 23.9195 18.5146 17.7315C18.5146 16.3584 19.6267 15.2463 20.9998 15.2463C22.3728 15.2463 23.4849 16.3584 23.4849 17.7315C23.4849 27.7714 31.6548 35.9413 41.6948 35.9413C51.7348 35.9413 59.9047 27.7714 59.9047 17.7315C59.9047 16.3584 61.0168 15.2463 62.3898 15.2463C63.7628 15.2463 64.8749 16.3584 64.8749 17.7315C64.8749 23.9257 62.4644 29.7409 58.0843 34.121C53.7104 38.501 47.889 40.9116 41.6948 40.9116Z" fill="#39B54A"/>
<path d="M54.9403 17.3836C53.7972 17.3836 52.8715 16.4578 52.8715 15.3147C52.8715 9.15153 47.8577 4.13776 41.6946 4.13776C35.5314 4.13776 30.5176 9.15153 30.5176 15.3147C30.5176 16.4578 29.5919 17.3836 28.4488 17.3836C27.3056 17.3836 26.3799 16.4578 26.3799 15.3147C26.3799 6.87142 33.2513 0 41.6946 0C50.1378 0 57.0092 6.87142 57.0092 15.3147C57.0092 16.4578 56.0835 17.3836 54.9403 17.3836Z" fill="#00A79D"/>
<path d="M48.317 17.0356C47.4037 17.0356 46.6582 16.2962 46.6582 15.3829C46.6582 12.6431 44.4278 10.4127 41.6941 10.4127C38.9542 10.4127 36.73 12.6431 36.73 15.3829C36.73 16.2962 35.9907 17.0356 35.0774 17.0356C34.1641 17.0356 33.4248 16.2962 33.4248 15.3829C33.4248 10.8165 37.1401 7.10742 41.7003 7.10742C46.2668 7.10742 49.9758 10.8227 49.9758 15.3829C49.9758 16.2962 49.2303 17.0356 48.317 17.0356Z" fill="#1B75BC"/>
<path d="M47.708 30.0453L43.0918 16.8927C43.7504 16.4453 44.1791 15.6936 44.1791 14.8362C44.1791 13.4632 43.067 12.3511 41.6939 12.3511C40.3209 12.3511 39.2088 13.4632 39.2088 14.8362C39.2088 15.6936 39.6437 16.4453 40.2961 16.8927L35.6799 30.0453C35.5308 30.474 35.7545 30.9523 36.1894 31.1015C36.6243 31.2506 37.0964 31.0269 37.2455 30.592L38.047 28.3057L41.6939 24.9321L45.3347 28.3057L46.1361 30.592C46.2542 30.9337 46.5773 31.1449 46.919 31.1449C47.0122 31.1449 47.0991 31.1325 47.1923 31.0952C47.6334 30.9461 47.8571 30.474 47.708 30.0453ZM43.2534 22.36L41.6939 23.8014L40.1345 22.36L41.6939 17.924L43.2534 22.36ZM38.6372 26.6344L39.8363 23.2111L41.0851 24.3667L38.6372 26.6344ZM42.309 24.3605L43.5578 23.2049L44.7569 26.6282L42.309 24.3605Z" fill="#1B75BC"/>
</svg>
