<svg width="36" height="32" viewBox="0 0 36 32" fill="none" xmlns="http://www.w3.org/2000/svg">
<path opacity="0.3" d="M9.03273 18.506L13.4836 0H7.2L1.70182 17.7349C0.392727 21.4618 0 23.004 0 25.0602C0 28.9157 2.74909 32 6.93818 32C10.7345 32 13.7455 29.1727 13.7455 25.0602C13.7455 21.8474 11.9127 19.4056 9.03273 18.506ZM31.2873 18.506L35.7382 0H29.4545L23.9564 17.7349C22.6473 21.4618 22.2545 23.004 22.2545 25.0602C22.2545 28.9157 25.0036 32 29.1927 32C32.9891 32 36 29.1727 36 25.0602C36 21.8474 34.1673 19.4056 31.2873 18.506Z" fill="#1D71B8"/>
</svg>
