<svg width="36" height="32" viewBox="0 0 36 32" fill="none" xmlns="http://www.w3.org/2000/svg">
<path opacity="0.3" d="M26.9673 18.506L22.5164 0H28.8L34.2982 17.7349C35.6073 21.4618 36 23.004 36 25.0602C36 28.9157 33.2509 32 29.0618 32C25.2655 32 22.2545 29.1727 22.2545 25.0602C22.2545 21.8474 24.0873 19.4056 26.9673 18.506ZM4.71272 18.506L0.261818 0H6.54545L12.0436 17.7349C13.3527 21.4618 13.7455 23.004 13.7455 25.0602C13.7455 28.9157 10.9964 32 6.80727 32C3.01091 32 0 29.1727 0 25.0602C0 21.8474 1.83273 19.4056 4.71272 18.506Z" fill="#1D71B8"/>
</svg>
