<svg width="32" height="32" viewBox="0 0 32 32" fill="none" xmlns="http://www.w3.org/2000/svg">
<path d="M29.3337 21.5865C29.3337 26.4398 26.4403 29.3332 21.587 29.3332H20.0003C19.267 29.3332 18.667 28.7332 18.667 27.9998V20.3065C18.667 19.9465 18.9603 19.6399 19.3203 19.6399L21.667 19.5999C21.8537 19.5865 22.0137 19.4532 22.0537 19.2665L22.5203 16.7198C22.5603 16.4798 22.3737 16.2532 22.1203 16.2532L19.2803 16.2932C18.907 16.2932 18.6137 15.9999 18.6003 15.6399L18.547 12.3732C18.547 12.1598 18.7203 11.9732 18.947 11.9732L22.147 11.9198C22.3736 11.9198 22.547 11.7465 22.547 11.5199L22.4937 8.31982C22.4937 8.09316 22.3203 7.91984 22.0937 7.91984L18.4937 7.97319C16.2803 8.01319 14.5203 9.8265 14.5603 12.0398L14.627 15.7065C14.6403 16.0798 14.347 16.3732 13.9737 16.3865L12.3737 16.4132C12.147 16.4132 11.9737 16.5865 11.9737 16.8132L12.0137 19.3465C12.0137 19.5732 12.187 19.7465 12.4137 19.7465L14.0137 19.7198C14.387 19.7198 14.6803 20.0132 14.6936 20.3732L14.8136 27.9732C14.827 28.7199 14.227 29.3332 13.4803 29.3332H10.4137C5.56032 29.3332 2.66699 26.4398 2.66699 21.5732V10.4132C2.66699 5.55983 5.56032 2.6665 10.4137 2.6665H21.587C26.4403 2.6665 29.3337 5.55983 29.3337 10.4132V21.5865Z" fill="#1D71B8"/>
</svg>
