<svg width="16" height="17" viewBox="0 0 16 17" fill="none" xmlns="http://www.w3.org/2000/svg">
<path d="M5.10102 14.097C5.08102 14.097 5.05435 14.1103 5.03435 14.1103C3.74102 13.4703 2.68768 12.4103 2.04102 11.117C2.04102 11.097 2.05435 11.0703 2.05435 11.0503C2.86768 11.2903 3.70768 11.4703 4.54102 11.6103C4.68768 12.4503 4.86102 13.2836 5.10102 14.097Z" fill="#1D71B8"/>
<path d="M13.9594 11.1236C13.2994 12.4503 12.1994 13.5236 10.8594 14.1703C11.1127 13.3236 11.326 12.4703 11.466 11.6103C12.306 11.4703 13.1327 11.2903 13.946 11.0503C13.9394 11.077 13.9594 11.1036 13.9594 11.1236Z" fill="#1D71B8"/>
<path d="M14.0127 5.29689C13.1727 5.04355 12.326 4.83689 11.466 4.69022C11.326 3.83022 11.1194 2.97689 10.8594 2.14355C12.2394 2.80355 13.3527 3.91689 14.0127 5.29689Z" fill="#1D71B8"/>
<path d="M5.09966 2.21702C4.85966 3.03035 4.68633 3.85702 4.54633 4.69702C3.68633 4.83035 2.83299 5.04369 1.98633 5.29702C2.63299 3.95702 3.70633 2.85702 5.033 2.19702C5.053 2.19702 5.07966 2.21702 5.09966 2.21702Z" fill="#1D71B8"/>
<path d="M10.3272 4.55023C8.78049 4.3769 7.22049 4.3769 5.67383 4.55023C5.84049 3.6369 6.05383 2.72357 6.35383 1.84357C6.36716 1.79023 6.36049 1.75023 6.36716 1.6969C6.89383 1.57023 7.43383 1.49023 8.00049 1.49023C8.56049 1.49023 9.10716 1.57023 9.62716 1.6969C9.63383 1.75023 9.63383 1.79023 9.64716 1.84357C9.94716 2.73023 10.1605 3.6369 10.3272 4.55023Z" fill="#1D71B8"/>
<path d="M4.39398 10.4837C3.47398 10.317 2.56732 10.1037 1.68732 9.80366C1.63398 9.79032 1.59398 9.79699 1.54065 9.79032C1.41398 9.26366 1.33398 8.72366 1.33398 8.15699C1.33398 7.59699 1.41398 7.05032 1.54065 6.53032C1.59398 6.52366 1.63398 6.52366 1.68732 6.51032C2.57398 6.21699 3.47398 5.99699 4.39398 5.83032C4.22732 7.37699 4.22732 8.93699 4.39398 10.4837Z" fill="#1D71B8"/>
<path d="M14.6674 8.15699C14.6674 8.72366 14.5874 9.26366 14.4608 9.79032C14.4074 9.79699 14.3674 9.79032 14.3141 9.80366C13.4274 10.097 12.5208 10.317 11.6074 10.4837C11.7808 8.93699 11.7808 7.37699 11.6074 5.83032C12.5208 5.99699 13.4341 6.21032 14.3141 6.51032C14.3674 6.52366 14.4074 6.53032 14.4608 6.53032C14.5874 7.05699 14.6674 7.59699 14.6674 8.15699Z" fill="#1D71B8"/>
<path d="M10.3272 11.7637C10.1605 12.6837 9.94716 13.5903 9.64716 14.4703C9.63383 14.5237 9.63383 14.5637 9.62716 14.617C9.10716 14.7437 8.56049 14.8237 8.00049 14.8237C7.43383 14.8237 6.89383 14.7437 6.36716 14.617C6.36049 14.5637 6.36716 14.5237 6.35383 14.4703C6.06049 13.5837 5.84049 12.6837 5.67383 11.7637C6.44716 11.8503 7.22049 11.9103 8.00049 11.9103C8.78049 11.9103 9.56049 11.8503 10.3272 11.7637Z" fill="#1D71B8"/>
<path d="M10.5095 10.6658C8.84214 10.8762 7.15916 10.8762 5.49176 10.6658C5.28139 8.99839 5.28139 7.31541 5.49176 5.64801C7.15916 5.43764 8.84214 5.43764 10.5095 5.64801C10.7199 7.31541 10.7199 8.99839 10.5095 10.6658Z" fill="#1D71B8"/>
</svg>
