<svg width="80" height="80" viewBox="0 0 80 80" fill="none" xmlns="http://www.w3.org/2000/svg">
<g filter="url(#filter0_d_26_956)">
<rect x="29.1543" y="5.35278" width="42" height="42" rx="10" transform="rotate(23.5807 29.1543 5.35278)" fill="#1D71B8"/>
</g>
<path d="M31.4097 36.332L32.5778 33.6559C32.9659 32.7669 34.0105 32.2735 35.0003 32.7056C35.8893 33.0936 36.3826 34.1382 35.9506 35.128L34.8264 37.7034C34.0464 39.4905 31.9136 40.3272 30.1264 39.5471C28.3392 38.767 27.5066 36.6251 28.2826 34.8471L30.7469 29.2015C32.8943 24.0067 38.7837 21.6129 43.9345 23.8611C49.0852 26.1093 51.3251 32.0516 49.1208 37.1015L46.6566 42.7471C45.8765 44.5343 43.7437 45.3709 41.9566 44.5908C40.1694 43.8108 39.3327 41.678 40.1128 39.8908L41.2369 37.3154C41.625 36.4264 42.6695 35.9331 43.6594 36.3652C44.5484 36.7532 45.0417 37.7978 44.6096 38.7876L43.3975 41.5646" stroke="white" stroke-width="1.5" stroke-linecap="round" stroke-linejoin="round"/>
<defs>
<filter id="filter0_d_26_956" x="0.515625" y="0.515625" width="78.9688" height="78.969" filterUnits="userSpaceOnUse" color-interpolation-filters="sRGB">
<feFlood flood-opacity="0" result="BackgroundImageFix"/>
<feColorMatrix in="SourceAlpha" type="matrix" values="0 0 0 0 0 0 0 0 0 0 0 0 0 0 0 0 0 0 127 0" result="hardAlpha"/>
<feOffset dy="7"/>
<feGaussianBlur stdDeviation="7.5"/>
<feComposite in2="hardAlpha" operator="out"/>
<feColorMatrix type="matrix" values="0 0 0 0 0.08125 0 0 0 0 0.285458 0 0 0 0 0.433333 0 0 0 0.2 0"/>
<feBlend mode="normal" in2="BackgroundImageFix" result="effect1_dropShadow_26_956"/>
<feBlend mode="normal" in="SourceGraphic" in2="effect1_dropShadow_26_956" result="shape"/>
</filter>
</defs>
</svg>
