<svg width="79" height="79" viewBox="0 0 79 79" fill="none" xmlns="http://www.w3.org/2000/svg">
<g filter="url(#filter0_d_26_959)">
<rect x="13" y="19.3042" width="42" height="42" rx="10" transform="rotate(-18.4676 13 19.3042)" fill="#1D71B8"/>
</g>
<g clip-path="url(#clip0_26_959)">
<path d="M40.1047 33.4961C41.4695 33.0422 42.2079 31.5679 41.754 30.2031C41.3001 28.8383 39.8257 28.0999 38.461 28.5538C37.0962 29.0077 36.3577 30.482 36.8116 31.8468C37.2655 33.2116 38.7399 33.95 40.1047 33.4961ZM38.8402 29.6941C39.5752 29.4496 40.3692 29.8473 40.6137 30.5823C40.8582 31.3174 40.4605 32.1114 39.7255 32.3558C38.9904 32.6003 38.1964 32.2026 37.9519 31.4676C37.7075 30.7326 38.1052 29.9385 38.8402 29.6941Z" fill="white" stroke="white" stroke-width="0.2"/>
<path d="M36.4063 22.3755L36.406 22.3756C31.1086 24.1525 28.2547 29.8875 30.0316 35.1849C31.3604 39.1462 34.9877 41.8832 39.1617 42.0739L39.3425 42.0822L39.2532 41.9247C39.0629 41.589 38.8771 41.2358 38.7022 40.8838L38.6779 40.8349L38.6236 40.8289C33.7299 40.2858 30.203 35.8783 30.7461 30.9845C31.2893 26.0907 35.6968 22.5639 40.5905 23.107C45.4843 23.6502 49.0112 28.0577 48.468 32.9515C48.2336 35.0635 47.2525 37.0223 45.7016 38.4749L45.6618 38.5122L45.6716 38.5659C45.7422 38.9517 45.8003 39.3474 45.8489 39.7311L45.8717 39.9107L46.0116 39.7958C50.3287 36.2485 50.9528 29.8732 47.4056 25.5561C44.7495 22.3236 40.3777 21.0594 36.4063 22.3755Z" fill="white" stroke="white" stroke-width="0.2"/>
<path d="M43.8873 41.6448L43.8873 41.6448L43.8869 41.6485C43.8706 41.8019 43.8321 41.9522 43.7727 42.0944L42.317 42.5786C42.1826 42.5011 42.0602 42.4042 41.9539 42.2908L41.9539 42.2908L41.9521 42.2889C41.8048 42.1399 41.6075 41.8716 41.3853 41.5255C41.1642 41.1811 40.9219 40.7654 40.6844 40.3261C40.2088 39.4462 39.756 38.4781 39.5318 37.8042C39.3072 37.1287 39.2785 36.6462 39.4565 36.279C39.6342 35.9126 40.0321 35.6319 40.7373 35.3973C41.4449 35.162 41.9261 35.1343 42.2844 35.3138C42.6427 35.4932 42.9088 35.8952 43.1441 36.6028C43.3786 37.3077 43.5958 38.3542 43.7387 39.3358C43.81 39.826 43.8626 40.2983 43.8895 40.7017C43.9166 41.1072 43.9172 41.4368 43.8873 41.6448ZM40.3581 34.257C39.1503 34.6587 38.5261 35.2698 38.2748 35.9802C38.0257 36.6846 38.152 37.4631 38.3916 38.1834C38.6312 38.9041 39.1087 39.9396 39.6241 40.8928C40.138 41.843 40.6978 42.7265 41.1049 43.1342C41.51 43.5398 41.8413 43.7093 42.0794 43.7744C42.1983 43.8069 42.2928 43.8131 42.36 43.8102C42.3935 43.8087 42.4199 43.8051 42.4391 43.8014C42.4486 43.7996 42.4563 43.7978 42.4622 43.7963L42.4694 43.7942L42.472 43.7934L42.473 43.7931L42.4735 43.793L42.4737 43.7929C42.4738 43.7929 42.4739 43.7929 42.4423 43.698L42.4739 43.7929L44.3749 43.1606L44.3433 43.0657C44.3749 43.1606 44.375 43.1606 44.3751 43.1605L44.3753 43.1605L44.3757 43.1603L44.3767 43.16L44.3792 43.1591L44.3863 43.1563C44.3919 43.1541 44.3991 43.1509 44.4079 43.1466C44.4254 43.1381 44.4488 43.1252 44.4765 43.1063C44.532 43.0683 44.604 43.0068 44.6797 42.9096C44.8314 42.7148 44.9952 42.3807 45.0767 41.8133L44.9777 41.7991L45.0767 41.8133C45.1586 41.2429 45.0776 40.2002 44.9201 39.1314C44.762 38.0594 44.5241 36.9442 44.2844 36.2235C44.0449 35.5033 43.6798 34.8042 43.0584 34.3893C42.4317 33.9709 41.5659 33.8553 40.3581 34.257Z" fill="white" stroke="white" stroke-width="0.2"/>
<path d="M43.5311 33.675L43.4768 33.7591C43.752 33.9441 43.9992 34.1677 44.2106 34.423L44.2964 34.5267L44.3709 34.4147C46.2394 31.6046 45.4761 27.8118 42.6661 25.9433C39.856 24.0748 36.0633 24.838 34.1947 27.6481C32.3262 30.4582 33.0895 34.2509 35.8995 36.1195L35.9549 36.0362L35.8995 36.1195C36.3155 36.396 36.7639 36.6206 37.2345 36.7881L37.3623 36.8336L37.368 36.698C37.3817 36.3671 37.4457 36.0401 37.5576 35.7284L37.5903 35.6375L37.5006 35.6017C34.9824 34.5977 33.7551 31.7424 34.7591 29.2243C35.7632 26.7062 38.6185 25.4788 41.1366 26.4828C43.6547 27.4869 44.882 30.3422 43.878 32.8603C43.7694 33.1327 43.6365 33.395 43.481 33.6438L43.5311 33.675Z" fill="white" stroke="white" stroke-width="0.2"/>
</g>
<defs>
<filter id="filter0_d_26_959" x="0.650391" y="0.649902" width="77.8408" height="77.8413" filterUnits="userSpaceOnUse" color-interpolation-filters="sRGB">
<feFlood flood-opacity="0" result="BackgroundImageFix"/>
<feColorMatrix in="SourceAlpha" type="matrix" values="0 0 0 0 0 0 0 0 0 0 0 0 0 0 0 0 0 0 127 0" result="hardAlpha"/>
<feOffset dy="7"/>
<feGaussianBlur stdDeviation="7.5"/>
<feComposite in2="hardAlpha" operator="out"/>
<feColorMatrix type="matrix" values="0 0 0 0 0.08125 0 0 0 0 0.285458 0 0 0 0 0.433333 0 0 0 0.2 0"/>
<feBlend mode="normal" in2="BackgroundImageFix" result="effect1_dropShadow_26_959"/>
<feBlend mode="normal" in="SourceGraphic" in2="effect1_dropShadow_26_959" result="shape"/>
</filter>
<clipPath id="clip0_26_959">
<rect width="24" height="24" fill="white" transform="translate(24.75 25.3235) rotate(-18.3962)"/>
</clipPath>
</defs>
</svg>
