<svg width="79" height="79" viewBox="0 0 79 79" fill="none" xmlns="http://www.w3.org/2000/svg">
<g filter="url(#filter0_d_26_962)">
<rect x="25.8066" y="6.25439" width="42" height="42" rx="10" transform="rotate(17.3894 25.8066 6.25439)" fill="#1D71B8"/>
</g>
<path d="M47.3831 40.5553L51.5648 29.2328C51.9805 28.1071 51.3696 26.9327 50.2186 26.6142L50.1624 26.5935C48.1301 26.0347 44.7669 25.9333 42.7091 26.3672L42.5115 26.4115C42.1771 26.4799 41.7269 26.3136 41.5172 26.0443L41.3347 25.8169C40.0495 24.159 37.4337 22.0629 35.5226 21.1759C34.441 20.6698 33.2192 21.178 32.8069 22.2943L28.6217 33.6261C28.2891 34.5267 28.709 35.6412 29.568 36.0863L29.8262 36.2243C31.7613 37.2482 34.5227 39.4407 35.96 41.0908L35.9906 41.1235C36.1919 41.3577 36.5953 41.5067 36.8912 41.4561C39.0595 41.1269 42.596 41.2497 44.7414 41.733L45.0648 41.8098C46.007 42.0298 47.0505 41.4558 47.3831 40.5553Z" stroke="white" stroke-width="1.5" stroke-linecap="round" stroke-linejoin="round"/>
<path d="M41.8994 26.5374L36.7026 40.6083" stroke="white" stroke-width="1.5" stroke-linecap="round" stroke-linejoin="round"/>
<path d="M36.8733 27.8791L34.7627 27.0996" stroke="white" stroke-width="1.5" stroke-linecap="round" stroke-linejoin="round"/>
<path d="M36.5378 30.9532L33.7236 29.9138" stroke="white" stroke-width="1.5" stroke-linecap="round" stroke-linejoin="round"/>
<defs>
<filter id="filter0_d_26_962" x="0.783203" y="0.783203" width="77.5752" height="77.575" filterUnits="userSpaceOnUse" color-interpolation-filters="sRGB">
<feFlood flood-opacity="0" result="BackgroundImageFix"/>
<feColorMatrix in="SourceAlpha" type="matrix" values="0 0 0 0 0 0 0 0 0 0 0 0 0 0 0 0 0 0 127 0" result="hardAlpha"/>
<feOffset dy="7"/>
<feGaussianBlur stdDeviation="7.5"/>
<feComposite in2="hardAlpha" operator="out"/>
<feColorMatrix type="matrix" values="0 0 0 0 0.08125 0 0 0 0 0.285458 0 0 0 0 0.433333 0 0 0 0.2 0"/>
<feBlend mode="normal" in2="BackgroundImageFix" result="effect1_dropShadow_26_962"/>
<feBlend mode="normal" in="SourceGraphic" in2="effect1_dropShadow_26_962" result="shape"/>
</filter>
</defs>
</svg>
