<svg width="100" height="100" viewBox="0 0 100 100" fill="none" xmlns="http://www.w3.org/2000/svg">
<path d="M90.625 81.25H9.375C7.64844 81.25 6.25 79.8516 6.25 78.125V25C6.25 23.2734 7.64844 21.875 9.375 21.875H90.625C92.3516 21.875 93.75 23.2734 93.75 25V78.125C93.75 79.8516 92.3516 81.25 90.625 81.25Z" fill="#104776"/>
<path d="M50 23.4375C50 22.8984 49.9313 22.375 49.8031 21.875H12.6969C12.5688 22.375 12.5 22.8984 12.5 23.4375V70.3125C12.5 73.7641 15.2984 76.5625 18.75 76.5625H43.75C46.6625 76.5625 49.1094 78.5547 49.8031 81.25H50.1969C50.8906 78.5547 53.3375 76.5625 56.25 76.5625H81.25C84.7016 76.5625 87.5 73.7641 87.5 70.3125V23.4375C87.5 22.8984 87.4313 22.375 87.3031 21.875H50.1969C50.0687 22.375 50 22.8984 50 23.4375Z" fill="#1B75BC"/>
<path d="M50 23.4375C50 22.8984 49.9313 22.375 49.8031 21.875H12.6969C12.5688 22.375 12.5 22.8984 12.5 23.4375V70.3125C12.5 73.7641 15.2984 76.5625 18.75 76.5625H43.75C46.6625 76.5625 49.1094 78.5547 49.8031 81.25H50.1969C50.8906 78.5547 53.3375 76.5625 56.25 76.5625H81.25C84.7016 76.5625 87.5 73.7641 87.5 70.3125V23.4375C87.5 22.8984 87.4313 22.375 87.3031 21.875H50.1969C50.0687 22.375 50 22.8984 50 23.4375Z" fill="white" fill-opacity="0.4"/>
<path d="M43.75 75H18.75C15.2984 75 12.5 72.2016 12.5 68.75V21.875C12.5 18.4234 15.2984 15.625 18.75 15.625H43.75C47.2016 15.625 50 18.4234 50 21.875V81.25C50 77.7984 47.2016 75 43.75 75Z" fill="#F0F0F0"/>
<path d="M56.25 75H81.25C84.7016 75 87.5 72.2016 87.5 68.75V21.875C87.5 18.4234 84.7016 15.625 81.25 15.625H56.25C52.7984 15.625 50 18.4234 50 21.875V81.25C50 77.7984 52.7984 75 56.25 75Z" fill="#F0F0F0"/>
<path d="M56.25 84.375H43.75C42.0234 84.375 40.625 82.9766 40.625 81.25H59.375C59.375 82.9766 57.9766 84.375 56.25 84.375Z" fill="#1B75BC"/>
<path d="M56.25 84.375H43.75C42.0234 84.375 40.625 82.9766 40.625 81.25H59.375C59.375 82.9766 57.9766 84.375 56.25 84.375Z" fill="white" fill-opacity="0.4"/>
<path d="M42.1875 25H20.3125C19.45 25 18.75 24.3 18.75 23.4375C18.75 22.575 19.45 21.875 20.3125 21.875H42.1875C43.05 21.875 43.75 22.575 43.75 23.4375C43.75 24.3 43.05 25 42.1875 25Z" fill="#D2D2D2"/>
<path d="M42.1875 31.25H20.3125C19.45 31.25 18.75 30.55 18.75 29.6875C18.75 28.825 19.45 28.125 20.3125 28.125H42.1875C43.05 28.125 43.75 28.825 43.75 29.6875C43.75 30.55 43.05 31.25 42.1875 31.25Z" fill="#D2D2D2"/>
<path d="M42.1875 37.5H20.3125C19.45 37.5 18.75 36.8 18.75 35.9375C18.75 35.075 19.45 34.375 20.3125 34.375H42.1875C43.05 34.375 43.75 35.075 43.75 35.9375C43.75 36.8 43.05 37.5 42.1875 37.5Z" fill="#D2D2D2"/>
<path d="M42.1875 43.75H20.3125C19.45 43.75 18.75 43.05 18.75 42.1875C18.75 41.325 19.45 40.625 20.3125 40.625H42.1875C43.05 40.625 43.75 41.325 43.75 42.1875C43.75 43.05 43.05 43.75 42.1875 43.75Z" fill="#D2D2D2"/>
<path d="M42.1875 50H20.3125C19.45 50 18.75 49.3 18.75 48.4375C18.75 47.575 19.45 46.875 20.3125 46.875H42.1875C43.05 46.875 43.75 47.575 43.75 48.4375C43.75 49.3 43.05 50 42.1875 50Z" fill="#D2D2D2"/>
<path d="M42.1875 56.25H20.3125C19.45 56.25 18.75 55.55 18.75 54.6875C18.75 53.825 19.45 53.125 20.3125 53.125H42.1875C43.05 53.125 43.75 53.825 43.75 54.6875C43.75 55.55 43.05 56.25 42.1875 56.25Z" fill="#D2D2D2"/>
<path d="M42.1875 62.5H20.3125C19.45 62.5 18.75 61.8 18.75 60.9375C18.75 60.075 19.45 59.375 20.3125 59.375H42.1875C43.05 59.375 43.75 60.075 43.75 60.9375C43.75 61.8 43.05 62.5 42.1875 62.5Z" fill="#D2D2D2"/>
<path d="M42.1875 68.75H20.3125C19.45 68.75 18.75 68.05 18.75 67.1875C18.75 66.325 19.45 65.625 20.3125 65.625H42.1875C43.05 65.625 43.75 66.325 43.75 67.1875C43.75 68.05 43.05 68.75 42.1875 68.75Z" fill="#D2D2D2"/>
<path d="M79.6875 25H57.8125C56.95 25 56.25 24.3 56.25 23.4375C56.25 22.575 56.95 21.875 57.8125 21.875H79.6875C80.55 21.875 81.25 22.575 81.25 23.4375C81.25 24.3 80.55 25 79.6875 25Z" fill="#D2D2D2"/>
<path d="M79.6875 31.25H57.8125C56.95 31.25 56.25 30.55 56.25 29.6875C56.25 28.825 56.95 28.125 57.8125 28.125H79.6875C80.55 28.125 81.25 28.825 81.25 29.6875C81.25 30.55 80.55 31.25 79.6875 31.25Z" fill="#D2D2D2"/>
<path d="M79.6875 37.5H57.8125C56.95 37.5 56.25 36.8 56.25 35.9375C56.25 35.075 56.95 34.375 57.8125 34.375H79.6875C80.55 34.375 81.25 35.075 81.25 35.9375C81.25 36.8 80.55 37.5 79.6875 37.5Z" fill="#D2D2D2"/>
<path d="M79.6875 43.75H57.8125C56.95 43.75 56.25 43.05 56.25 42.1875C56.25 41.325 56.95 40.625 57.8125 40.625H79.6875C80.55 40.625 81.25 41.325 81.25 42.1875C81.25 43.05 80.55 43.75 79.6875 43.75Z" fill="#D2D2D2"/>
<path d="M79.6875 50H57.8125C56.95 50 56.25 49.3 56.25 48.4375C56.25 47.575 56.95 46.875 57.8125 46.875H79.6875C80.55 46.875 81.25 47.575 81.25 48.4375C81.25 49.3 80.55 50 79.6875 50Z" fill="#D2D2D2"/>
<path d="M79.6875 56.25H57.8125C56.95 56.25 56.25 55.55 56.25 54.6875C56.25 53.825 56.95 53.125 57.8125 53.125H79.6875C80.55 53.125 81.25 53.825 81.25 54.6875C81.25 55.55 80.55 56.25 79.6875 56.25Z" fill="#D2D2D2"/>
<path d="M79.6875 62.5H57.8125C56.95 62.5 56.25 61.8 56.25 60.9375C56.25 60.075 56.95 59.375 57.8125 59.375H79.6875C80.55 59.375 81.25 60.075 81.25 60.9375C81.25 61.8 80.55 62.5 79.6875 62.5Z" fill="#D2D2D2"/>
<path d="M79.6875 68.75H57.8125C56.95 68.75 56.25 68.05 56.25 67.1875C56.25 66.325 56.95 65.625 57.8125 65.625H79.6875C80.55 65.625 81.25 66.325 81.25 67.1875C81.25 68.05 80.55 68.75 79.6875 68.75Z" fill="#D2D2D2"/>
<path d="M50 70.3125C62.0812 70.3125 71.875 60.5187 71.875 48.4375C71.875 36.3563 62.0812 26.5625 50 26.5625C37.9188 26.5625 28.125 36.3563 28.125 48.4375C28.125 60.5187 37.9188 70.3125 50 70.3125Z" fill="#D2D2D2"/>
<path d="M50 68.75C62.0812 68.75 71.875 58.9562 71.875 46.875C71.875 34.7938 62.0812 25 50 25C37.9188 25 28.125 34.7938 28.125 46.875C28.125 58.9562 37.9188 68.75 50 68.75Z" fill="#1B75BC"/>
<path d="M50 68.75C62.0812 68.75 71.875 58.9562 71.875 46.875C71.875 34.7938 62.0812 25 50 25C37.9188 25 28.125 34.7938 28.125 46.875C28.125 58.9562 37.9188 68.75 50 68.75Z" fill="white" fill-opacity="0.4"/>
<path d="M47.3328 35.4797L40.625 42.1875H35.9375C35.075 42.1875 34.375 42.8875 34.375 43.75V53.125C34.375 53.9875 35.075 54.6875 35.9375 54.6875H40.625L47.3328 61.3953C48.3172 62.3797 50 61.6828 50 60.2906V36.5844C50 35.1922 48.3172 34.4953 47.3328 35.4797Z" fill="#1B75BC"/>
<path d="M47.3328 35.4797L40.625 42.1875H35.9375C35.075 42.1875 34.375 42.8875 34.375 43.75V53.125C34.375 53.9875 35.075 54.6875 35.9375 54.6875H40.625L47.3328 61.3953C48.3172 62.3797 50 61.6828 50 60.2906V36.5844C50 35.1922 48.3172 34.4953 47.3328 35.4797Z" fill="white" fill-opacity="0.6"/>
<path d="M40.625 53.125H35.9375C35.075 53.125 34.375 52.425 34.375 51.5625V42.1875C34.375 41.325 35.075 40.625 35.9375 40.625H40.625V53.125Z" fill="#00325A"/>
<path d="M47.3328 59.8328L40.625 53.125V40.625L47.3328 33.9172C48.3172 32.9328 50 33.6297 50 35.0219V58.7281C50 60.1203 48.3172 60.8172 47.3328 59.8328Z" fill="#0A5078"/>
<path d="M67.1875 46.875C67.1875 39.1844 62.1094 32.6578 55.1313 30.4703C54.1359 30.1594 53.125 30.9297 53.125 31.9734C53.125 32.6766 53.6031 33.2625 54.2734 33.4766C59.9453 35.2891 64.0625 40.6109 64.0625 46.875C64.0625 53.1391 59.9453 58.4609 54.2734 60.2734C53.6031 60.4875 53.125 61.075 53.125 61.7766C53.125 62.8187 54.1359 63.5906 55.1313 63.2797C62.1094 61.0922 67.1875 54.5656 67.1875 46.875Z" fill="#A4C8E4"/>
<path d="M60.9375 46.875C60.9375 42.7766 58.6703 39.1969 55.325 37.325C54.3422 36.775 53.125 37.4813 53.125 38.6063V38.8172C53.125 39.3688 53.45 39.8453 53.9266 40.1235C56.2484 41.4782 57.8125 43.9985 57.8125 46.875C57.8125 49.7516 56.2484 52.2719 53.9266 53.6266C53.45 53.9047 53.125 54.3813 53.125 54.9328V55.1438C53.125 56.2703 54.3422 56.975 55.325 56.425C58.6703 54.5532 60.9375 50.9735 60.9375 46.875Z" fill="#A4C8E4"/>
</svg>
