<svg width="100" height="100" viewBox="0 0 100 100" fill="none" xmlns="http://www.w3.org/2000/svg">
<g clip-path="url(#clip0_84_5530)">
<path d="M85.6831 49.0096C83.7518 53.6722 83.6302 59.4365 85.5616 64.0991L87.2236 67.3547H15.485C15.485 67.3547 2.12866 59.8502 15.485 46.4939L86.6041 45.0283L85.6831 49.0096Z" fill="#F1F2F2"/>
<path d="M87.2242 67.3553H15.4858C15.4858 67.3553 2.12986 59.8502 15.4858 46.4943L86.6053 45.0281L85.6831 49.0102C85.2564 50.0436 84.9166 51.1296 84.6699 52.246H19.573C17.0511 52.246 15.0004 54.2967 15.0004 56.8166C15.0004 59.3385 17.0511 61.3893 19.573 61.3893H84.6942C84.9126 62.3216 85.2018 63.2296 85.5618 64.0993L87.2242 67.3553Z" fill="#DEE1E1"/>
<path d="M86.1379 70.4007L20.5637 70.2973C12.7077 70.2973 5.96102 65.2858 5.96102 57.4298C5.96102 55.6946 5.65888 53.4194 6.22778 51.882C8.23419 46.4585 13.452 42.5925 19.573 42.5925H86.8457C88.6178 42.5925 90.0543 44.029 90.0543 45.8011C90.0543 47.5731 88.6178 49.0096 86.8457 49.0096H35.9319L30.9597 50.1767L26.6354 49.0096H19.5728C15.2608 49.0096 11.7653 52.5051 11.7653 56.817C11.7653 61.129 15.2608 64.6245 19.5728 64.6245H86.8455C88.6176 64.6245 90.0541 66.061 90.0541 67.833C90.0541 67.9608 90.0466 68.0868 90.032 68.2108C89.8451 69.8049 87.7821 70.4007 86.1379 70.4007Z" fill="#1B75BC"/>
<path d="M86.1379 70.4007L20.5637 70.2973C12.7077 70.2973 5.96102 65.2858 5.96102 57.4298C5.96102 55.6946 5.65888 53.4194 6.22778 51.882C8.23419 46.4585 13.452 42.5925 19.573 42.5925H86.8457C88.6178 42.5925 90.0543 44.029 90.0543 45.8011C90.0543 47.5731 88.6178 49.0096 86.8457 49.0096H35.9319L30.9597 50.1767L26.6354 49.0096H19.5728C15.2608 49.0096 11.7653 52.5051 11.7653 56.817C11.7653 61.129 15.2608 64.6245 19.5728 64.6245H86.8455C88.6176 64.6245 90.0541 66.061 90.0541 67.833C90.0541 67.9608 90.0466 68.0868 90.032 68.2108C89.8451 69.8049 87.7821 70.4007 86.1379 70.4007Z" fill="white" fill-opacity="0.4"/>
<path d="M90.0314 68.2107C89.9445 68.9448 89.6108 69.6041 89.1153 70.1016C88.5329 70.6821 87.732 71.0421 86.8462 71.0421L53.6107 73.0339L19.5732 71.0421C11.7162 71.0421 5.34766 64.6735 5.34766 56.8165C5.34766 54.7678 5.78045 52.8203 6.56109 51.0608V53.9852C6.56109 61.8422 12.9296 68.2107 20.7866 68.2107H90.0314Z" fill="#1B75BC"/>
<path d="M90.0314 68.2107C89.9445 68.9448 89.6108 69.6041 89.1153 70.1016C88.5329 70.6821 87.732 71.0421 86.8462 71.0421L53.6107 73.0339L19.5732 71.0421C11.7162 71.0421 5.34766 64.6735 5.34766 56.8165C5.34766 54.7678 5.78045 52.8203 6.56109 51.0608V53.9852C6.56109 61.8422 12.9296 68.2107 20.7866 68.2107H90.0314Z" fill="white" fill-opacity="0.4"/>
<path d="M35.9317 58.3633V49.0095H29.2647L26.8975 49.2472L27.0396 57.9588C27.0396 58.2438 27.3262 58.4394 27.5915 58.3354L29.2645 57.9265L31.136 57.1938C31.2309 57.1565 31.3362 57.1565 31.4309 57.1938L35.3798 58.7401C35.6451 58.8438 35.9317 58.6483 35.9317 58.3633Z" fill="#1D71B8"/>
<path d="M29.2649 49.01V57.9268L27.1879 58.7398C26.9229 58.8429 26.6357 58.6488 26.6357 58.3636V49.01H29.2649Z" fill="#1D71B8"/>
<path d="M76.462 34.4245V38.985L76.2597 41.0074C76.2597 41.7901 75.6247 42.4231 74.844 42.4231L20.9452 42.2209C20.1625 42.2209 19.5295 41.5879 19.5295 40.8052L19.125 34.4245L46.794 33.1023L76.462 34.4245Z" fill="#1B75BC"/>
<path d="M76.462 34.4245V38.985L76.2597 41.0074C76.2597 41.7901 75.6247 42.4231 74.844 42.4231L20.9452 42.2209C20.1625 42.2209 19.5295 41.5879 19.5295 40.8052L19.125 34.4245L46.794 33.1023L76.462 34.4245Z" fill="#868491"/>
<path d="M93.0686 34.7447C92.2307 34.7447 91.5518 34.0656 91.5518 33.2279V17.4941C91.5518 16.6564 92.2307 15.9773 93.0686 15.9773C93.9064 15.9773 94.5854 16.6564 94.5854 17.4941V33.2277C94.5854 34.0656 93.9062 34.7447 93.0686 34.7447Z" fill="#77777F"/>
<path d="M90.3574 38.2316C89.0913 41.3524 87.8174 44.4315 86.5512 47.5525C85.7944 49.4179 87.1539 51.4622 89.1514 51.4622L91.4925 51.6644H97.1874C99.1849 51.6644 100.544 49.6202 99.7876 47.7545L97.1474 41.246L95.4868 38.2314H90.3574V38.2316Z" fill="#1B75BC"/>
<path d="M90.3574 38.2316C89.0913 41.3524 87.8174 44.4315 86.5512 47.5525C85.7944 49.4179 87.1539 51.4622 89.1514 51.4622L91.4925 51.6644H97.1874C99.1849 51.6644 100.544 49.6202 99.7876 47.7545L97.1474 41.246L95.4868 38.2314H90.3574V38.2316Z" fill="white" fill-opacity="0.4"/>
<path d="M92.3962 42.3965C94.0603 42.548 95.8056 42.1111 97.1475 41.2463L95.7277 37.6982L93.3816 38.3996C93.3816 38.3994 93.3818 38.3992 93.3818 38.399L90.3233 37.9909C89.937 38.9434 89.3754 40.296 88.9891 41.2486C88.9891 41.2486 88.9893 41.2486 88.9893 41.2488C88.1096 43.4174 87.2296 45.586 86.3499 47.7546C85.5935 49.6213 86.9526 51.6639 88.9487 51.6639H92.1845C90.1884 51.6639 88.8293 49.6213 89.5857 47.7546C90.2432 46.1351 90.9001 44.5157 91.5572 42.8962C91.6933 42.5601 92.0352 42.3635 92.3962 42.3965Z" fill="#1D71B8"/>
<path d="M97.7373 34.6784C97.7373 32.6117 96.4191 30.8556 94.5852 30.2202C94.1097 30.0554 93.4187 30.3486 92.888 30.3486C90.3096 30.3486 88.7227 32.0759 88.7227 34.6786C88.7227 37.2812 90.6516 38.8427 93.23 38.8427C93.7608 38.8427 94.1097 39.3014 94.5852 39.1367C96.4191 38.5011 97.7373 36.745 97.7373 34.6784Z" fill="#1B75BC"/>
<path d="M97.7373 34.6784C97.7373 32.6117 96.4191 30.8556 94.5852 30.2202C94.1097 30.0554 93.4187 30.3486 92.888 30.3486C90.3096 30.3486 88.7227 32.0759 88.7227 34.6786C88.7227 37.2812 90.6516 38.8427 93.23 38.8427C93.7608 38.8427 94.1097 39.3014 94.5852 39.1367C96.4191 38.5011 97.7373 36.745 97.7373 34.6784Z" fill="white" fill-opacity="0.4"/>
<path d="M94.5849 39.1367C94.1096 39.3025 93.598 39.3915 93.0681 39.3915C90.4895 39.3915 88.4004 37.2801 88.4004 34.6773C88.4004 32.0765 90.4895 29.9651 93.0681 29.9651C93.598 29.9651 94.1096 30.0541 94.5849 30.2199C92.7506 30.8549 91.434 32.6124 91.434 34.6773C91.434 36.7442 92.7506 38.5016 94.5849 39.1367Z" fill="#1D71B8"/>
<path d="M93.4415 19.1158L80.102 23.7338L76.4619 23.3604L50.5694 33.9574C48.7708 34.5801 46.8152 34.5801 45.0167 33.9574L19.1247 23.7736L15.4844 23.734L2.1441 19.1158C0.621237 18.5886 0.621237 16.4349 2.1441 15.9079L45.5225 0.891207C46.9932 0.381968 48.5925 0.381968 50.0632 0.891207L93.4415 15.9079C94.9642 16.4349 94.9642 18.5886 93.4415 19.1158Z" fill="#868491"/>
<path d="M80.1029 22.365V23.7342L50.5699 33.9574C48.772 34.5803 46.8163 34.5803 45.0164 33.9574L15.4854 23.7342V22.365C15.4854 19.4791 17.5462 17.0158 20.3876 16.5041C29.4156 14.8862 38.6357 14.0671 47.7931 14.0671C56.9505 14.0671 66.1727 14.8862 75.2006 16.5041C76.5759 16.7529 77.8237 17.4769 78.7176 18.5467C79.6074 19.6085 80.1029 20.9676 80.1029 22.365Z" fill="#77777F"/>
<path d="M76.4618 22.3651V34.4246H19.7315L19.5293 22.7696C19.5293 21.6492 20.3322 20.6906 21.4344 20.4924C22.0122 20.3888 22.1861 19.8842 22.7649 19.7874C31.0497 18.4018 39.4218 17.7075 47.7923 17.7075C56.7495 17.7075 65.7067 18.5023 74.5567 20.0879C75.1068 20.187 75.584 20.4762 75.9218 20.8807C76.2616 21.2851 76.4618 21.8049 76.4618 22.3651Z" fill="#868491"/>
<path d="M76.462 38.985V41.2097C76.462 41.9923 75.8269 42.6254 75.0463 42.6254H20.5407C19.7588 42.6254 19.125 41.9915 19.125 41.2097V34.4245L20.9452 33.1023L22.7653 34.4245V37.9738C22.7653 38.5322 23.2181 38.985 23.7765 38.985H76.462Z" fill="#77777F"/>
<path d="M22.7653 19.7886V34.4247H19.125V22.3651C19.125 21.2447 19.9279 20.2861 21.0301 20.0879C21.6085 19.9847 22.1869 19.8836 22.7653 19.7886Z" fill="#77777F"/>
<path d="M91.0272 92.5013C89.0958 87.8387 89.0958 82.5999 91.0272 77.9372L91.6426 75.2034H8.94436C8.94436 75.2034 -0.364931 85.324 9.54926 95.238L92.1811 95.8577L91.0272 92.5013Z" fill="#F1F2F2"/>
<path d="M92.181 95.8568L9.54992 95.238C-0.365885 85.3242 8.94522 75.2041 8.94522 75.2041L92.0402 75.3576L91.0282 77.9364C90.6541 78.8384 90.3527 79.7606 90.1242 80.6949H14.2257C11.7038 80.6949 9.65306 82.7456 9.65306 85.2655C9.65306 87.7875 11.7038 89.8382 14.2257 89.8382H90.1485C90.375 90.7402 90.6682 91.632 91.0282 92.5017L92.181 95.8568Z" fill="#DEE1E1"/>
<path d="M90.7877 98.783L16.0194 98.6455C8.16337 98.6455 1.25162 94.2122 1.25162 86.3562C1.25162 83.863 0.641873 80.4297 1.76875 78.3922C4.19259 74.0097 8.86231 71.042 14.2249 71.042H92.1929C93.9649 71.042 95.4014 72.4785 95.4014 74.2505C95.4014 76.0225 93.9649 77.4591 92.1929 77.4591H72.875L67.8273 78.5764L63.5786 77.4591H14.2251C9.91314 77.4591 6.41763 80.9546 6.41763 85.2665C6.41763 89.5785 9.91314 93.074 14.2251 93.074H92.1929C93.9649 93.074 95.4014 94.5105 95.4014 96.2825C95.4014 96.4805 95.3834 96.674 95.3493 96.8621C95.0764 98.3575 92.362 98.783 90.7877 98.783Z" fill="#1D71B8"/>
<path d="M95.3499 96.862C95.2306 97.5173 94.9131 98.0997 94.4621 98.5507C93.8816 99.1311 93.0787 99.4911 92.1929 99.4911H14.2255C6.36852 99.4911 0 93.1226 0 85.2656C0 82.4545 0.815026 79.8335 2.22464 77.625V82.6365C2.22464 90.4935 8.59316 96.862 16.4502 96.862H95.3499Z" fill="#1D71B8"/>
<path d="M72.8749 86.8852V77.4558H66.6119L63.834 77.6249L63.9828 86.4808C63.9828 86.7657 64.2696 86.9613 64.5347 86.8573L66.6117 86.2902L68.0792 85.7157C68.174 85.6785 68.2794 85.6785 68.3741 85.7157L72.323 87.262C72.5881 87.3658 72.8749 87.1702 72.8749 86.8852Z" fill="#1B75BC"/>
<path d="M72.8749 86.8852V77.4558H66.6119L63.834 77.6249L63.9828 86.4808C63.9828 86.7657 64.2696 86.9613 64.5347 86.8573L66.6117 86.2902L68.0792 85.7157C68.174 85.6785 68.2794 85.6785 68.3741 85.7157L72.323 87.262C72.5881 87.3658 72.8749 87.1702 72.8749 86.8852Z" fill="white" fill-opacity="0.4"/>
<path d="M66.6117 77.4551V86.2909L64.1302 87.2617C63.8653 87.3648 63.5781 87.1707 63.5781 86.8855V77.4551H66.6117Z" fill="#1D71B8"/>
</g>
<defs>
<clipPath id="clip0_84_5530">
<rect width="100" height="100" fill="white"/>
</clipPath>
</defs>
</svg>
