<svg width="100" height="100" viewBox="0 0 100 100" fill="none" xmlns="http://www.w3.org/2000/svg">
<path d="M65.625 92.1875H34.375C32.649 92.1875 31.25 90.7885 31.25 89.0625V85.9375H65.625C67.351 85.9375 68.75 84.5385 68.75 82.8125V89.0625C68.75 90.7885 67.351 92.1875 65.625 92.1875Z" fill="#D7E6F0"/>
<path d="M65.625 92.1875H34.375C32.649 92.1875 31.25 90.7885 31.25 89.0625V85.9375H65.625C67.351 85.9375 68.75 84.5385 68.75 82.8125V89.0625C68.75 90.7885 67.351 92.1875 65.625 92.1875Z" fill="#A5C3DC"/>
<path d="M21.875 79.6875C18.4232 79.6875 15.625 76.8893 15.625 73.4375V48.4375C15.625 44.9857 18.4232 42.1875 21.875 42.1875C25.3268 42.1875 28.125 44.9857 28.125 48.4375V73.4375C28.125 76.8893 25.3268 79.6875 21.875 79.6875Z" fill="#463C4B"/>
<path d="M9.375 73.4375H15.625V48.4375H9.375C5.92324 48.4375 3.125 51.2357 3.125 54.6875V67.1875C3.125 70.6393 5.92324 73.4375 9.375 73.4375Z" fill="#1B75BC"/>
<path d="M9.375 73.4375H15.625V48.4375H9.375C5.92324 48.4375 3.125 51.2357 3.125 54.6875V67.1875C3.125 70.6393 5.92324 73.4375 9.375 73.4375Z" fill="white" fill-opacity="0.6"/>
<path d="M15.625 60.9375H21.875V42.1875C18.4232 42.1875 15.625 44.9857 15.625 48.4375V60.9375Z" fill="#555A6E"/>
<path d="M9.375 60.9375H15.625V73.4375H9.375V60.9375Z" fill="#1D71B8"/>
<path d="M78.125 79.6875C81.5768 79.6875 84.375 76.8893 84.375 73.4375V48.4375C84.375 44.9857 81.5768 42.1875 78.125 42.1875C74.6732 42.1875 71.875 44.9857 71.875 48.4375V73.4375C71.875 76.8893 74.6732 79.6875 78.125 79.6875Z" fill="#463C4B"/>
<path d="M90.625 73.4375H84.375V48.4375H90.625C94.0768 48.4375 96.875 51.2357 96.875 54.6875V67.1875C96.875 70.6393 94.0768 73.4375 90.625 73.4375Z" fill="#1B75BC"/>
<path d="M90.625 73.4375H84.375V48.4375H90.625C94.0768 48.4375 96.875 51.2357 96.875 54.6875V67.1875C96.875 70.6393 94.0768 73.4375 90.625 73.4375Z" fill="white" fill-opacity="0.6"/>
<path d="M84.375 60.9375H78.125V42.1875C81.5768 42.1875 84.375 44.9857 84.375 48.4375V60.9375Z" fill="#555A6E"/>
<path d="M90.625 73.4375H84.375V60.9375H90.625V73.4375Z" fill="#1D71B8"/>
<path d="M90.625 48.4375H84.375V45.3125C84.375 26.358 68.9545 10.9375 50 10.9375C31.0455 10.9375 15.625 26.358 15.625 45.3125V48.4375H9.375V45.3125C9.375 22.9119 27.5994 4.6875 50 4.6875C72.4006 4.6875 90.625 22.9119 90.625 45.3125V48.4375Z" fill="#1D71B8"/>
<path d="M65.625 85.9375H34.375C32.649 85.9375 31.25 87.3365 31.25 89.0625V39.0625C31.25 37.3365 32.649 35.9375 34.375 35.9375H65.625C67.351 35.9375 68.75 37.3365 68.75 39.0625V82.8125C68.75 84.5385 67.351 85.9375 65.625 85.9375Z" fill="#23AAE6"/>
<path d="M42.6451 95.3125C42.3521 95.3125 42.0711 95.1961 41.8639 94.9889L39.0625 92.1875L36.2611 94.9889C36.0539 95.1961 35.7729 95.3125 35.4799 95.3125C34.8697 95.3125 34.375 94.8178 34.375 94.2076V89.0625H43.75V94.2076C43.75 94.8178 43.2553 95.3125 42.6451 95.3125Z" fill="#1D71B8"/>
<path d="M50 76.5625C58.6294 76.5625 65.625 69.5669 65.625 60.9375C65.625 52.3081 58.6294 45.3125 50 45.3125C41.3706 45.3125 34.375 52.3081 34.375 60.9375C34.375 69.5669 41.3706 76.5625 50 76.5625Z" fill="#1B75BC"/>
<path d="M50 76.5625C58.6294 76.5625 65.625 69.5669 65.625 60.9375C65.625 52.3081 58.6294 45.3125 50 45.3125C41.3706 45.3125 34.375 52.3081 34.375 60.9375C34.375 69.5669 41.3706 76.5625 50 76.5625Z" fill="white" fill-opacity="0.6"/>
<path d="M44.9494 51.5625C45.1861 51.5625 45.4178 51.6326 45.6146 51.7639L56.9457 59.318C57.4871 59.6789 57.8125 60.2867 57.8125 60.9375C57.8125 61.5883 57.4873 62.1959 56.9457 62.557L45.6146 70.1111C45.4176 70.2424 45.1861 70.3125 44.9494 70.3125C44.2871 70.3125 43.75 69.7756 43.75 69.1131V52.7617C43.75 52.0994 44.2869 51.5625 44.9494 51.5625Z" fill="#D7E6F0"/>
</svg>
