<svg width="16" height="17" viewBox="0 0 16 17" fill="none" xmlns="http://www.w3.org/2000/svg">
<path d="M13.9738 12.0502L12.8871 12.4169C12.5871 12.5169 12.3471 12.7502 12.2471 13.0569L11.8804 14.1436C11.5671 15.0836 10.2471 15.0636 9.95377 14.1236L8.72044 10.1569C8.48044 9.37023 9.20711 8.63689 9.98711 8.88356L13.9604 10.1169C14.8938 10.4102 14.9071 11.7369 13.9738 12.0502Z" fill="#1D71B8"/>
<path d="M13.999 7.82359C13.999 8.11025 13.979 8.39692 13.9456 8.67692C13.919 8.87692 13.7123 8.99692 13.519 8.93692L10.2856 7.93025C9.56563 7.71025 8.79896 7.89692 8.26563 8.42359C7.73229 8.95692 7.53896 9.73692 7.76563 10.4569L8.76563 13.6769C8.82563 13.8703 8.69896 14.0769 8.49896 14.1036C8.21896 14.1369 7.94563 14.1569 7.66563 14.1569C4.10563 14.1569 1.23896 11.2303 1.33229 7.64359C1.42563 4.33692 4.17896 1.58359 7.48563 1.49025C11.0723 1.39692 13.999 4.26359 13.999 7.82359Z" fill="#1D71B8"/>
</svg>
